<svg xmlns="http://www.w3.org/2000/svg" width="644.638" height="351.747" viewBox="0 0 644.638 351.747">
  <g id="Group_44" data-name="Group 44" transform="translate(-689.358 -280)">
    <path id="Path_344" data-name="Path 344" d="M662.809,462.621a105.689,105.689,0,0,1-9.2,17.691,76.122,76.122,0,0,1-5.572,7.663.39.39,0,0,1-.062.067H25l.084-.067c.561-.437,3.851-3.1,8.969-7.663,3.672-3.268,8.279-7.517,13.453-12.629,42.317-41.621,123.6-140.14,55.9-230.389-62.934-83.9,4.826-99.124,49.525-100.9a127.7,127.7,0,0,1,50.372,8.235c20.651,7.848,58.393,19.877,107.566,25.393,1.614.179,3.24.359,4.888.521a470.931,470.931,0,0,0,78.355,1.424h0c.768-.045,1.542-.1,2.321-.157a465.606,465.606,0,0,0,76.64-11.856c1.631-.4,3.24-.774,4.843-1.149C561.8,139.4,639.12,205.538,619.786,280.283c-7.147,27.647-5.331,57.115,18.5,80.956C677.3,400.153,672.574,438.478,662.809,462.621Z" transform="translate(664.358 143.705)" fill="#264653" opacity="0.1"/>
    <path id="Path_345" data-name="Path 345" d="M662.875,711.04a105.687,105.687,0,0,1-9.2,17.691,76.123,76.123,0,0,1-5.572,7.663H25.15c.561-.437,3.851-3.1,8.969-7.663,3.672-3.268,8.279-7.517,13.453-12.629l65.658-13.565a12.769,12.769,0,0,1,2.579-.263l70-.1h.073l34.671-.045h.078l29.261-.034h38.774l80.4-.112H403.65l13.807-.157h4.563l40.158-.056H481.17l46.386-.062h13.812l43.937-.062,37.087-.045a13.142,13.142,0,0,1,3.066.364Z" transform="translate(664.292 -104.714)" fill="#264653"/>
    <path id="Path_346" data-name="Path 346" d="M34.119,750H653.676a76.147,76.147,0,0,1-5.572,7.663H25.15C25.7,757.2,28.99,754.535,34.119,750Z" transform="translate(664.292 -125.983)" fill="none"/>
    <path id="Path_347" data-name="Path 347" d="M34.119,750H653.676a76.147,76.147,0,0,1-5.572,7.663H25.15C25.7,757.2,28.99,754.535,34.119,750Z" transform="translate(664.292 -125.983)" fill="#122229" opacity="0.4"/>
    <path id="Path_348" data-name="Path 348" d="M632.554,312.731l-1.244.241-56.258,10.808c-16.34,3.139-32.916,6.3-49.514,5.09-12.024-.874-23.258-4.44-34.811-7.568-6.531-1.771-13.453-2.478-15.668-9.787-3.055-10.09,1.917-25.029,3.089-35.254,1.121-10.034,1.783-20.32-.213-30.236a53.752,53.752,0,0,0-1.749-6.581c-2-5.936-5.146-12.108-3.447-18.134,1.34-4.782,5.426-8.2,9.249-11.357,7.489-6.166,15.135-13.078,18.106-22.321,1.457-4.484,1.732-9.311,3.3-13.762,2.977-8.464,10.454-14.793,18.773-18.145s17.467-4.064,26.442-4.064a179.122,179.122,0,0,1,23.685,1.574c8.575,1.122,17.219,2.967,24.747,7.216s13.874,11.211,15.628,19.7c2.483,12-4.412,24.782-.712,36.436,1.861,5.891,6.166,10.651,9.154,16.043a38.214,38.214,0,0,1,2.8,29.71c-3.576,11.082-12.332,22.293-7.848,33.039,2.853,6.833,10.141,10.482,15.219,15.9Q631.966,312,632.554,312.731Z" transform="translate(467.817 136.953)" fill="#454b69"/>
    <path id="Path_349" data-name="Path 349" d="M632.743,364.64v1.654L576.486,377.1c-16.34,3.139-32.916,6.3-49.514,5.09-12.024-.874-23.258-4.44-34.811-7.568-6.531-1.771-13.453-2.478-15.668-9.787-3.055-10.09,1.917-25.029,3.089-35.254,1.121-10.034,18.381-46.666,16.385-56.583l103.143,4.484c.7,5.477,27.955,32.966,26.257,38.219-3.576,11.082-12.332,22.293-7.848,33.039C620.377,355.576,627.665,359.225,632.743,364.64Z" transform="translate(466.383 83.631)" opacity="0.1"/>
    <path id="Path_350" data-name="Path 350" d="M541.723,361.161c.611,3.47.936,7.287-.835,10.314-2.36,4.058-7.506,5.353-12.108,6.273l-15.976,3.2a6.2,6.2,0,0,0-3.055,1.211,5.344,5.344,0,0,0-1.424,3.492c-.645,5.785,1.4,11.486,3.268,17,3.773,11.161,6.94,22.557,11.71,33.325s11.318,21.049,20.662,28.247,21.71,11.032,33.151,8.218c9.967-2.45,18.14-9.485,25.186-16.946,5.813-6.166,11.25-12.893,14.07-20.892,1.945-5.493,2.579-11.346,3.19-17.142l2.836-26.66c.443-4.171.734-8.862-1.973-12.063a14.367,14.367,0,0,0-4.451-3.212c-6.132-3.257-12.59-5.948-18.3-9.871s-10.768-9.328-12.5-16.032c-1.037-4.025-.852-8.408-2.618-12.159-1.973-4.2-6.166-7.052-10.651-8.3s-9.216-1.082-13.835-.561-22.422,1.855-24.334,7.063c-1.026,2.8,3.229,8.818,4.238,11.576A80.813,80.813,0,0,1,541.723,361.161Z" transform="translate(452.018 59.374)" fill="#f0b67f"/>
    <path id="Path_351" data-name="Path 351" d="M541.723,361.161c.611,3.47.936,7.287-.835,10.314-2.36,4.058-7.506,5.353-12.108,6.273l-15.976,3.2a6.2,6.2,0,0,0-3.055,1.211,5.344,5.344,0,0,0-1.424,3.492c-.645,5.785,1.4,11.486,3.268,17,3.773,11.161,6.94,22.557,11.71,33.325s11.318,21.049,20.662,28.247,21.71,11.032,33.151,8.218c9.967-2.45,18.14-9.485,25.186-16.946,5.813-6.166,11.25-12.893,14.07-20.892,1.945-5.493,2.579-11.346,3.19-17.142l2.836-26.66c.443-4.171.734-8.862-1.973-12.063a14.367,14.367,0,0,0-4.451-3.212c-6.132-3.257-12.59-5.948-18.3-9.871s-10.768-9.328-12.5-16.032c-1.037-4.025-.852-8.408-2.618-12.159-1.973-4.2-6.166-7.052-10.651-8.3s-9.216-1.082-13.835-.561-22.422,1.855-24.334,7.063c-1.026,2.8,3.229,8.818,4.238,11.576A80.813,80.813,0,0,1,541.723,361.161Z" transform="translate(452.018 59.374)" opacity="0.1"/>
    <path id="Path_352" data-name="Path 352" d="M574.456,452.6l9.367-19.833c4.389-9.294,8.874-19.059,8.408-29.323-.09-2.04-.112-4.591,1.682-5.516a4.809,4.809,0,0,1,2.461-.314,99.55,99.55,0,0,1,28.874,5.841,11.456,11.456,0,0,1,4.9,2.836,11.707,11.707,0,0,1,2.2,5.213,152.207,152.207,0,0,1,3.212,18.986c1.682,15.819.846,31.778,0,47.647l-2.489,48.449a4.631,4.631,0,0,1-.409,2c-.617,1.121-2.007,1.5-3.257,1.71a70.715,70.715,0,0,1-14.614.471c-34.306-1.3-68.792-3.3-102.874.863q.23-7.562-.241-15.135c-1.351-21.8-7-43.068-12.551-64.19-3.234-12.332-6.368-25.786-1.16-37.406a16.026,16.026,0,0,1,3.246-4.944c2.214-2.169,5.236-3.313,8.229-4.131a52.373,52.373,0,0,1,15.858-1.794l35.343,76.948c1.614,3.52,2.943,7.226,4.552,10.7,1.446-6-.292-13.039,1.446-19.547A123.083,123.083,0,0,1,574.456,452.6Z" transform="translate(457.734 28.888)" fill="#fff"/>
    <path id="Path_353" data-name="Path 353" d="M539.062,504.51c6.323.4,12.467-2.842,16.817-7.422s7.22-10.387,9.647-16.256a160.317,160.317,0,0,0,8.291-25.847c1.682-7.511,2.876-15.286,1.715-22.9-1.6-10.51-7.551-20.062-8.565-30.646-.174-1.85-.062-4.014,1.424-5.129a5.914,5.914,0,0,1,3.274-.852c10.572-.628,22.187-.51,30.377,6.2,2.494,2.04,4.518,4.591,6.956,6.693,5.807,5.045,14.014,7.612,17.742,14.311,1.3,2.332,1.923,4.972,2.831,7.483,2.141,5.942,5.847,11.166,9.53,16.307-3.571,15.068-7.674,30.147-11.245,45.215-2.091,8.84-4.2,17.714-7.483,26.178-2.153,5.55-4.86,11.211-4.2,17.153a39.17,39.17,0,0,0,1.721,6.828,78.479,78.479,0,0,1,3.3,24.4l-159.95.392c7.663-10.987,9.911-24.463,9.132-37.832a41.339,41.339,0,0,0-5.045-18.4c-5.079-8.689-14.014-14.35-22.82-19.2-6.166-3.363-12.786,15.561-19.451,13.392,1.076-7.612,1.57-37,1.121-44.66-.146-2.511-.37-5.09.4-7.489.527-1.642,1.5-3.111,2.153-4.709,2.629-6.4.123-14.575,4.372-20.018,2.937-3.784,8.089-4.86,12.276-7.192,4.3-2.4,7.624-6.166,11.368-9.384a50.557,50.557,0,0,1,25.875-11.553,32.591,32.591,0,0,1,4.938,14.575c.286,3.257.079,6.559.533,9.8.622,4.389,2.438,8.509,4.238,12.568,7.495,16.923,15.017,33.9,24.513,49.789,2.685,4.484,5.606,8.969,9.5,12.461S533.838,504.756,539.062,504.51Z" transform="translate(489.434 29.925)" fill="#ef2d56"/>
    <path id="Path_354" data-name="Path 354" d="M539.062,504.51c6.323.4,12.467-2.842,16.817-7.422s7.22-10.387,9.647-16.256a160.317,160.317,0,0,0,8.291-25.847c1.682-7.511,2.876-15.286,1.715-22.9-1.6-10.51-7.551-20.062-8.565-30.646-.174-1.85-.062-4.014,1.424-5.129a5.914,5.914,0,0,1,3.274-.852c10.572-.628,22.187-.51,30.377,6.2,2.494,2.04,4.518,4.591,6.956,6.693,5.807,5.045,14.014,7.612,17.742,14.311,1.3,2.332,1.923,4.972,2.831,7.483,2.141,5.942,5.847,11.166,9.53,16.307-3.571,15.068-7.674,30.147-11.245,45.215-2.091,8.84-4.2,17.714-7.483,26.178-2.153,5.55-4.86,11.211-4.2,17.153a39.17,39.17,0,0,0,1.721,6.828,78.479,78.479,0,0,1,3.3,24.4l-159.95.392c7.663-10.987,9.911-24.463,9.132-37.832a41.339,41.339,0,0,0-5.045-18.4c-5.079-8.689-14.014-14.35-22.82-19.2-6.166-3.363-12.786,15.561-19.451,13.392,1.076-7.612,1.57-37,1.121-44.66-.146-2.511-.37-5.09.4-7.489.527-1.642,1.5-3.111,2.153-4.709,2.629-6.4.123-14.575,4.372-20.018,2.937-3.784,8.089-4.86,12.276-7.192,4.3-2.4,7.624-6.166,11.368-9.384a50.557,50.557,0,0,1,25.875-11.553,32.591,32.591,0,0,1,4.938,14.575c.286,3.257.079,6.559.533,9.8.622,4.389,2.438,8.509,4.238,12.568,7.495,16.923,15.017,33.9,24.513,49.789,2.685,4.484,5.606,8.969,9.5,12.461S533.838,504.756,539.062,504.51Z" transform="translate(489.434 29.925)" opacity="0.1"/>
    <circle id="Ellipse_17" data-name="Ellipse 17" cx="48.051" cy="48.051" r="48.051" transform="translate(971.986 323.16)" fill="#f0b67f"/>
    <path id="Path_355" data-name="Path 355" d="M540.085,307.682c1.317-12.433-3.851-24.6-9.7-35.646-2.8-5.28-5.807-10.544-7.214-16.346s-1-12.372,2.6-17.142c3.061-4.058,7.915-6.25,12.405-8.633,12.674-6.727,24.261-16.615,29.833-29.839-3.15,1.715-2.332,6.833.448,9.092s6.57,2.7,9.989,3.773c12.467,3.924,19.945,16.357,25.943,27.972.981,1.895,1.979,3.9,1.968,6.032a12.235,12.235,0,0,1-2.007,5.847c-2.96,5.269-6.581,10.331-7.926,16.223-1.542,6.727.084,13.8,2.2,20.4,2.242,7.018,5.219,14.092,10.6,19.126s13.728,7.534,20.348,4.283c-6.609-11.363-13.453-24.059-10.875-36.941,1.244-6.166,4.591-11.772,6.015-17.9,2.713-11.7-1.8-23.734-6.239-34.9L605.21,189.752c-2.024-5.1-4.328-10.533-8.969-13.42-3.139-1.945-6.94-2.45-10.617-2.8-11.839-1.054-24.1-.706-35.125,3.7-20.079,8.022-32.669,27.8-42.658,46.98-2.993,5.746-5.948,11.85-5.824,18.33.067,3.554,1.059,7.013,1.867,10.477,3.285,14.1,3.464,28.717,3.632,43.2.129,11.11-.448,21.581-5.308,31.7,6.659,1.323,16.318,4.894,22.91,2.281C533.711,326.8,539,316.331,540.085,307.682Z" transform="translate(454.739 127.562)" fill="#454b69"/>
    <g id="Group_15" data-name="Group 15" transform="translate(956.725 326.753)" opacity="0.1">
      <path id="Path_356" data-name="Path 356" d="M507.467,348.2q.034-2.371,0-4.787c-.168-14.479-.348-29.093-3.632-43.2a72.9,72.9,0,0,1-1.715-8.341,21.8,21.8,0,0,0-.151,2.909c.067,3.554,1.059,7.013,1.867,10.477C507.1,319.286,507.3,333.81,507.467,348.2Z" transform="translate(-501.966 -251.419)"/>
      <path id="Path_357" data-name="Path 357" d="M715.727,316.739a33.916,33.916,0,0,0,.729-9.989,31.129,31.129,0,0,1-.729,4.944c-1.424,6.166-4.77,11.721-6.015,17.9a29.706,29.706,0,0,0-.448,8.285,29.4,29.4,0,0,1,.448-3.24C710.957,328.46,714.3,322.883,715.727,316.739Z" transform="translate(-593.013 -257.953)"/>
      <path id="Path_358" data-name="Path 358" d="M621.9,264.881a8.079,8.079,0,0,0,.437-2.472,13.507,13.507,0,0,0-1.968-6.032c-6-11.615-13.453-24.037-25.943-27.972-3.419-1.076-7.2-1.514-9.989-3.773a7.108,7.108,0,0,1-2.455-4.933c-6.076,11.155-16.514,19.687-27.826,25.679-4.484,2.382-9.344,4.574-12.405,8.633-2.876,3.812-3.711,8.773-3.212,13.571a17.158,17.158,0,0,1,3.212-8.526c3.061-4.058,7.915-6.25,12.405-8.633,11.312-5.992,21.75-14.524,27.826-25.679a7.108,7.108,0,0,0,2.455,4.933c2.8,2.242,6.57,2.7,9.989,3.773,12.467,3.924,19.945,16.357,25.943,27.972A22.079,22.079,0,0,1,621.9,264.881Z" transform="translate(-517.98 -219.7)"/>
      <path id="Path_359" data-name="Path 359" d="M682.746,381.236c-5.381-5.045-8.347-12.108-10.6-19.126a55.367,55.367,0,0,1-2.691-12.17c-.521,5.757.908,11.648,2.691,17.215,2.242,7.018,5.219,14.092,10.6,19.126s13.728,7.534,20.348,4.283c-.8-1.362-1.586-2.747-2.371-4.143C694.573,388.153,687.51,385.687,682.746,381.236Z" transform="translate(-575.52 -276.933)"/>
      <path id="Path_360" data-name="Path 360" d="M540.219,403.089c-1.082,8.649-6.374,19.115-14.989,22.534-5.981,2.371-14.5-.353-20.993-1.861a48.561,48.561,0,0,1-1.917,4.625c6.659,1.323,16.318,4.894,22.91,2.281,8.616-3.419,13.907-13.885,14.989-22.534a38.954,38.954,0,0,0,.123-6.514C540.309,402.108,540.259,402.6,540.219,403.089Z" transform="translate(-502.121 -299.643)"/>
    </g>
    <path id="Path_361" data-name="Path 361" d="M659.974,649.955c-8.661-1.373-17.45-4.025-26.038-2.242a36.2,36.2,0,0,0-13.666,6.5c2.276,1.822,4.933,3.448,6.379,5.981a23.54,23.54,0,0,1,2.007,5.533,47.081,47.081,0,0,1,1.962,10.292,15.665,15.665,0,0,1-2.646,9.961c10.92,1.076,21.5-1.614,32.154-4.243a8.806,8.806,0,0,0,3.4-1.373c1.682-1.323,2.175-3.677,2.186-5.824,0-3.834-1.076-7.573-2.169-11.25C662.245,658.879,661.28,654.338,659.974,649.955Z" transform="translate(402.772 -80.771)" fill="#fff"/>
    <path id="Path_362" data-name="Path 362" d="M743.728,483.23c4.3.561,7.635,4.03,10.09,7.6,6.889,9.922,9.86,21.951,13.167,33.572a446.849,446.849,0,0,0,14.5,42.67,64.224,64.224,0,0,0,4.35,9.361c1.385,2.315,3.066,4.54,3.677,7.169,1.48,6.357-3.761,12.332-9.227,15.875a36.515,36.515,0,0,1-9.445,4.552A56.263,56.263,0,0,1,760.8,605.74L729.681,609.1c-14.322,1.558-28.773,3.117-43.1,1.614-.9-3.139.869-5.359.74-8.627-.09-2.338-1.121-4.512-2.04-6.665a42.6,42.6,0,0,1-3.324-12.058,16.344,16.344,0,0,0-.8-4.524,4.24,4.24,0,0,0-3.363-2.8c8.408-.835,14.793-2.422,23.2-3.263,3.122-.314,6.368-.667,9.031-2.326,3.3-2.057,5.151-5.768,6.62-9.367,3.638-8.913,5.981-18.734,4.07-28.174-1.57-7.741-5.948-14.95-5.925-22.848,0-4.7,1.6-9.26,3.5-13.566,2.007-4.552,4.625-9.2,9.031-11.514S738.756,482.557,743.728,483.23Z" transform="translate(377.495 -8.596)" fill="#ef2d56"/>
    <path id="Path_363" data-name="Path 363" d="M743.728,483.23c4.3.561,7.635,4.03,10.09,7.6,6.889,9.922,9.86,21.951,13.167,33.572a446.849,446.849,0,0,0,14.5,42.67,64.224,64.224,0,0,0,4.35,9.361c1.385,2.315,3.066,4.54,3.677,7.169,1.48,6.357-3.761,12.332-9.227,15.875a36.515,36.515,0,0,1-9.445,4.552A56.263,56.263,0,0,1,760.8,605.74L729.681,609.1c-14.322,1.558-28.773,3.117-43.1,1.614-.9-3.139.869-5.359.74-8.627-.09-2.338-1.121-4.512-2.04-6.665a42.6,42.6,0,0,1-3.324-12.058,16.344,16.344,0,0,0-.8-4.524,4.24,4.24,0,0,0-3.363-2.8c8.408-.835,14.793-2.422,23.2-3.263,3.122-.314,6.368-.667,9.031-2.326,3.3-2.057,5.151-5.768,6.62-9.367,3.638-8.913,5.981-18.734,4.07-28.174-1.57-7.741-5.948-14.95-5.925-22.848,0-4.7,1.6-9.26,3.5-13.566,2.007-4.552,4.625-9.2,9.031-11.514S738.756,482.557,743.728,483.23Z" transform="translate(377.495 -8.596)" opacity="0.08"/>
    <path id="Path_364" data-name="Path 364" d="M444.494,402.428c2.035-4.832,4.1-9.821,4.159-15.062.062-5.667-2.242-11.049-4-16.43a95.008,95.008,0,0,1-4.322-20.287,2.8,2.8,0,0,1,.28-1.945,3.341,3.341,0,0,1,2.153-.964c3.879-.886,6.811-4.019,9.232-7.175a78.67,78.67,0,0,0,9.451-15.785c1.855-4.131,4.367-9.171,8.9-9.21a256.934,256.934,0,0,1-6.772,25.365c4.737-1.211,9.238-2.971,13.975-4.182a8.369,8.369,0,0,1,2.87-.381,4.332,4.332,0,0,1,2.926,6.463c2.315,2.713,6.166,3.442,9.193,5.3s5.2,6.469,2.511,8.806a7.505,7.505,0,0,0-1.575,1.357c-1.3,2.007,1.883,4.311,1.62,6.687-.213,1.945-2.708,2.853-4.6,2.338s-3.363-1.928-5.045-2.965-3.879-1.682-5.51-.605c-.437,5.275-.908,10.651-3.19,15.455-.835,1.755-1.906,3.4-2.579,5.219a25.721,25.721,0,0,0-1.188,6.127l-2.035,18.6C461.238,411.106,452.533,408.2,444.494,402.428Z" transform="translate(481.874 64.924)" fill="#f0b67f"/>
    <path id="Path_365" data-name="Path 365" d="M441.954,482.152l-1.788-12.1a19.671,19.671,0,0,1-.286-2.982c0-2.8,1.233-5.477,2.427-8.027,9.894,4.619,20.589,6.261,31.5,6.267,1.441,0,3.083-.135,3.98-1.261,1.855,2.136,1.911,5.572,1.121,8.285s-2.31,5.157-3.319,7.8a11.124,11.124,0,0,1-1.9,3.834c-1.514,1.631-3.969,1.911-6.2,1.9a39.635,39.635,0,0,1-7-.667C454.522,484.091,447.93,481.081,441.954,482.152Z" transform="translate(482.043 1.877)" fill="#fff"/>
    <path id="Path_366" data-name="Path 366" d="M466.667,494.824q-11.519-1.312-22.888-3.7c-3.717-.779-7.467-1.648-11.256-1.5-2.466.1-5.118.594-7.287-.628a35.085,35.085,0,0,1-.286,21.828c-1.5,4.2-3.778,8.122-4.877,12.45-2.287,9.053.852,18.924-2.007,27.815a7.04,7.04,0,0,1-1.727,3.094c-.874.8-2.068,1.216-2.876,2.085-1.188,1.278-1.261,3.2-1.267,4.944l-.05,15.443c-.034,9.832.1,20.259,5.286,28.588a27.144,27.144,0,0,0,29.227,11.57,21.728,21.728,0,0,0,7.938-3.885c3.767-2.993,6.166-7.321,8.515-11.536,2.8-5.045,5.606-10.2,6.508-15.881a45.125,45.125,0,0,0-.179-12.164c-2.534-22.422-8.033-44.654-6.85-67.16A20.354,20.354,0,0,1,466.667,494.824Z" transform="translate(494.231 -11.288)" fill="#ef2d56"/>
    <path id="Path_367" data-name="Path 367" d="M513.52,663.434a67.953,67.953,0,0,1-11.7,0c-2.8-.336-5.538-1.026-8.319-1.5a53.315,53.315,0,0,0-42.933,11.929c-2.153,1.839-4.327,4.658-3.139,7.231,1.278,2.769,5.185,2.691,8.2,2.175a24.664,24.664,0,0,0-8.408,6.575,4.964,4.964,0,0,0-1.474,3.571c.342,2.775,4.109,3.279,6.895,3.038-.908.975-.3,2.7.858,3.363a5.751,5.751,0,0,0,3.9.286,28.878,28.878,0,0,0,8.274-2.864,3.153,3.153,0,0,0,1.682,3.666,6.927,6.927,0,0,0,4.322.4c6.85-1.121,12.568-5.886,19.25-7.758,10.684-2.988,21.862,1.777,32.966,2.113a23,23,0,0,0,10.208-1.682c3.885-1.766,7.018-5.079,11.121-6.256,4.557-1.3,9.787.2,13.958-2.052,3.033-1.631.3-14.2-.477-16.626-1.418-4.428-2.842-7.366-7.568-7.814C539.172,660.059,525.567,662.739,513.52,663.434Z" transform="translate(479.476 -86.845)" fill="#f0b67f"/>
    <path id="Path_368" data-name="Path 368" d="M619.88,657.631s18.1,15.32,7.657,32.036l20.18-6.968V668.074c0-.7-7.663-11.138-7.663-11.138L631,655.54Z" transform="translate(402.943 -84.473)" fill="#fff"/>
    <path id="Path_369" data-name="Path 369" d="M245.8,521.32h6.788a14.014,14.014,0,0,1,14.014,14.014v20.8H231.79v-20.8A14.014,14.014,0,0,1,245.8,521.32Z" transform="translate(587.5 50.89)" fill="#2a9d8f"/>
    <path id="Path_370" data-name="Path 370" d="M245.8,521.32h6.788a14.014,14.014,0,0,1,14.014,14.014v20.8H231.79v-20.8A14.014,14.014,0,0,1,245.8,521.32Z" transform="translate(587.5 50.89)" opacity="0.1"/>
    <circle id="Ellipse_18" data-name="Ellipse 18" cx="2.786" cy="2.786" r="2.786" transform="translate(832.519 574.296)" fill="#3f3d56"/>
    <circle id="Ellipse_19" data-name="Ellipse 19" cx="2.786" cy="2.786" r="2.786" transform="translate(832.519 570.815)" fill="#3f3d56"/>
    <circle id="Ellipse_20" data-name="Ellipse 20" cx="2.786" cy="2.786" r="2.786" transform="translate(832.519 567.334)" fill="#3f3d56"/>
    <circle id="Ellipse_21" data-name="Ellipse 21" cx="2.786" cy="2.786" r="2.786" transform="translate(832.519 563.852)" fill="#3f3d56"/>
    <circle id="Ellipse_22" data-name="Ellipse 22" cx="2.786" cy="2.786" r="2.786" transform="translate(832.519 560.371)" fill="#3f3d56"/>
    <circle id="Ellipse_23" data-name="Ellipse 23" cx="2.786" cy="2.786" r="2.786" transform="translate(832.519 556.89)" fill="#3f3d56"/>
    <circle id="Ellipse_24" data-name="Ellipse 24" cx="2.786" cy="2.786" r="2.786" transform="translate(832.519 553.404)" fill="#3f3d56"/>
    <circle id="Ellipse_25" data-name="Ellipse 25" cx="2.786" cy="2.786" r="2.786" transform="translate(836.701 554.799)" fill="#3f3d56"/>
    <circle id="Ellipse_26" data-name="Ellipse 26" cx="2.786" cy="2.786" r="2.786" transform="translate(839.487 553.404)" fill="#3f3d56"/>
    <circle id="Ellipse_27" data-name="Ellipse 27" cx="2.786" cy="2.786" r="2.786" transform="translate(842.273 552.013)" fill="#3f3d56"/>
    <circle id="Ellipse_28" data-name="Ellipse 28" cx="2.786" cy="2.786" r="2.786" transform="translate(832.519 549.923)" fill="#3f3d56"/>
    <circle id="Ellipse_29" data-name="Ellipse 29" cx="2.786" cy="2.786" r="2.786" transform="translate(832.519 546.442)" fill="#3f3d56"/>
    <circle id="Ellipse_30" data-name="Ellipse 30" cx="2.786" cy="2.786" r="2.786" transform="translate(832.519 542.96)" fill="#3f3d56"/>
    <circle id="Ellipse_31" data-name="Ellipse 31" cx="2.786" cy="2.786" r="2.786" transform="translate(832.519 539.479)" fill="#3f3d56"/>
    <path id="Path_371" data-name="Path 371" d="M287.653,580.428q-1.043.151-2.085.219a16,16,0,0,0,1.794-1.839,11.771,11.771,0,0,0-1.682-3.268,5.729,5.729,0,0,1-2.242.706c-.689.1-1.385.174-2.08.224a34.723,34.723,0,0,0,2.663-2.8,11.828,11.828,0,1,0,3.885,8.75,11.589,11.589,0,0,0-.179-2.035Z" transform="translate(559.223 -47.149)" fill="#2a9d8f"/>
    <path id="Path_372" data-name="Path 372" d="M313.873,611.75a5.4,5.4,0,0,1-2.343.779c-.69.1-1.385.179-2.08.224a20.415,20.415,0,0,0,2.063-2.141,6.973,6.973,0,1,0,2.36,1.121Z" transform="translate(542.291 -64.63)" fill="#2a9d8f"/>
    <circle id="Ellipse_32" data-name="Ellipse 32" cx="2.786" cy="2.786" r="2.786" transform="translate(828.343 554.799)" fill="#3f3d56"/>
    <circle id="Ellipse_33" data-name="Ellipse 33" cx="2.786" cy="2.786" r="2.786" transform="translate(825.557 553.404)" fill="#3f3d56"/>
    <circle id="Ellipse_34" data-name="Ellipse 34" cx="2.786" cy="2.786" r="2.786" transform="translate(822.771 552.013)" fill="#3f3d56"/>
    <path id="Path_373" data-name="Path 373" d="M245.922,611.75a5.4,5.4,0,0,0,2.343.779c.689.1,1.385.179,2.08.224a19.848,19.848,0,0,1-2.063-2.141,6.973,6.973,0,1,1-2.36,1.121Z" transform="translate(568.53 -64.63)" fill="#2a9d8f"/>
    <path id="Path_374" data-name="Path 374" d="M245.791,525h6.788a14.014,14.014,0,0,1,14.014,14.014v18.426a2.377,2.377,0,0,1-2.377,2.377h-30.08a2.377,2.377,0,0,1-2.377-2.377V539.014A14.014,14.014,0,0,1,245.791,525Z" transform="translate(587.513 49.273)" fill="#2a9d8f"/>
    <g id="Group_16" data-name="Group 16" transform="translate(823.634 523.613)" opacity="0.1">
      <path id="Path_375" data-name="Path 375" d="M305.637,589.49a10.545,10.545,0,0,1-.9.852,9.1,9.1,0,0,0,.953-.084C305.682,590,305.665,589.742,305.637,589.49Z" transform="translate(-282.205 -579.061)"/>
      <path id="Path_376" data-name="Path 376" d="M297.28,581.731c.7-.045,1.39-.118,2.085-.219a6.725,6.725,0,0,0,1.811-.493,12.285,12.285,0,0,0-.975-1.609,4.217,4.217,0,0,1-1.121.477,16.136,16.136,0,0,1-1.8,1.844Z" transform="translate(-278.927 -574.631)"/>
      <path id="Path_377" data-name="Path 377" d="M265.768,583.965a11.817,11.817,0,0,1,18.218-9.956l.179-.191a11.828,11.828,0,1,0-15.595,17.787,11.772,11.772,0,0,1-2.8-7.641Z" transform="translate(-264.54 -570.885)"/>
    </g>
    <g id="Group_17" data-name="Group 17" transform="translate(845.059 545.746)" opacity="0.1">
      <path id="Path_378" data-name="Path 378" d="M314.68,615.2c.7-.045,1.39-.118,2.08-.219a5.41,5.41,0,0,0,2.343-.785,6.968,6.968,0,0,1,2.8,4.933,6.388,6.388,0,0,0,.039-.734,6.94,6.94,0,0,0-2.8-5.606,5.4,5.4,0,0,1-2.343.779l-.561.073A14.228,14.228,0,0,1,314.68,615.2Z" transform="translate(-307.998 -611.433)"/>
      <path id="Path_379" data-name="Path 379" d="M309.722,611.76a5.718,5.718,0,0,1,.7.05c.364-.387.723-.8,1.088-1.205a6.951,6.951,0,0,0-8.745,6.727,4.772,4.772,0,0,0,.034.7A6.962,6.962,0,0,1,309.722,611.76Z" transform="translate(-302.76 -610.37)"/>
    </g>
    <g id="Group_18" data-name="Group 18" transform="translate(811.61 545.746)" opacity="0.1">
      <path id="Path_380" data-name="Path 380" d="M250.355,615.2c-.7-.045-1.39-.118-2.08-.219a5.41,5.41,0,0,1-2.343-.785,6.968,6.968,0,0,0-2.8,4.933,6.377,6.377,0,0,1-.039-.734,6.94,6.94,0,0,1,2.8-5.606,5.4,5.4,0,0,0,2.343.779l.561.073A13.27,13.27,0,0,0,250.355,615.2Z" transform="translate(-243.09 -611.433)"/>
      <path id="Path_381" data-name="Path 381" d="M254.153,611.76a5.875,5.875,0,0,0-.7.05c-.359-.387-.718-.8-1.082-1.205a6.951,6.951,0,0,1,8.745,6.727,4.777,4.777,0,0,1-.034.7,6.962,6.962,0,0,0-6.929-6.267Z" transform="translate(-247.168 -610.37)"/>
    </g>
    <path id="Path_382" data-name="Path 382" d="M177.093,711.422H122.326A2.326,2.326,0,0,1,120,709.1v-25.92a2.326,2.326,0,0,1,3.324-2.1c15.735,7.467,32.686,10.028,52.692.118a2.332,2.332,0,0,1,3.363,2.08v25.786A2.326,2.326,0,0,1,177.093,711.422Z" transform="translate(622.611 -95.595)" fill="#2a9d8f"/>
    <path id="Path_383" data-name="Path 383" d="M177.093,711.422H122.326A2.326,2.326,0,0,1,120,709.1v-25.92a2.326,2.326,0,0,1,3.324-2.1c15.735,7.467,32.686,10.028,52.692.118a2.332,2.332,0,0,1,3.363,2.08v25.786A2.326,2.326,0,0,1,177.093,711.422Z" transform="translate(622.611 -95.595)" opacity="0.1"/>
    <ellipse id="Ellipse_35" data-name="Ellipse 35" cx="3.24" cy="4.243" rx="3.24" ry="4.243" transform="translate(768.7 587.637)" fill="#3f3d56"/>
    <ellipse id="Ellipse_36" data-name="Ellipse 36" cx="3.24" cy="4.243" rx="3.24" ry="4.243" transform="translate(768.7 582.452)" fill="#3f3d56"/>
    <ellipse id="Ellipse_37" data-name="Ellipse 37" cx="3.24" cy="4.243" rx="3.24" ry="4.243" transform="translate(768.7 577.261)" fill="#3f3d56"/>
    <ellipse id="Ellipse_38" data-name="Ellipse 38" cx="3.24" cy="4.243" rx="3.24" ry="4.243" transform="translate(768.7 572.076)" fill="#3f3d56"/>
    <ellipse id="Ellipse_39" data-name="Ellipse 39" cx="3.24" cy="4.243" rx="3.24" ry="4.243" transform="translate(768.7 566.885)" fill="#3f3d56"/>
    <ellipse id="Ellipse_40" data-name="Ellipse 40" cx="3.24" cy="4.243" rx="3.24" ry="4.243" transform="translate(768.7 561.694)" fill="#3f3d56"/>
    <ellipse id="Ellipse_41" data-name="Ellipse 41" cx="3.24" cy="4.243" rx="3.24" ry="4.243" transform="translate(768.7 556.509)" fill="#3f3d56"/>
    <path id="Path_384" data-name="Path 384" d="M172.253,554.047a16.486,16.486,0,0,0,1.205-1.777l-8.52-1.4,9.216.067a15.533,15.533,0,0,0,.3-12.332l-12.36,6.413,11.4-8.408a15.533,15.533,0,1,0-25.657,17.377,15.191,15.191,0,0,0-1.771,2.831l11.054,5.807-11.772-3.98a15.55,15.55,0,0,0,2.506,14.575,15.533,15.533,0,1,0,24.418,0,15.533,15.533,0,0,0,0-19.2Z" transform="translate(611.84 -28.801)" fill="#2a9d8f"/>
    <path id="Path_385" data-name="Path 385" d="M144.49,590.751a15.466,15.466,0,0,0,3.324,9.6,15.533,15.533,0,1,0,24.418,0C174.311,597.713,144.49,589.007,144.49,590.751Z" transform="translate(611.85 -55.901)" opacity="0.1"/>
    <path id="Path_386" data-name="Path 386" d="M177.093,712.8H122.326A2.326,2.326,0,0,1,120,710.469V683.176a2.326,2.326,0,0,1,3.324-2.1c15.735,7.467,28.213,16.172,52.692.118a2.281,2.281,0,0,1,3.363,2.08v27.187A2.326,2.326,0,0,1,177.093,712.8Z" transform="translate(622.611 -95.595)" fill="#2a9d8f"/>
    <path id="Path_387" data-name="Path 387" d="M824.353,565.64l-80.8,10.69-4.042.533-39.5-21.1v-4.939L823.456,537.36Z" transform="translate(381.745 43.842)" fill="#9c9ca1"/>
    <path id="Path_388" data-name="Path 388" d="M740.85,566.1l87.531-10.32-.9,16.161-68.181,5Z" transform="translate(363.798 35.747)" fill="#939498"/>
    <path id="Path_389" data-name="Path 389" d="M768.55,717.837v5.3l-4.042.561L725,702.578V697.64l37.709,20.18S767.653,718.285,768.55,717.837Z" transform="translate(356.749 -102.974)" opacity="0.4"/>
    <path id="Path_390" data-name="Path 390" d="M816.044,575.693,797.9,659.805a5.37,5.37,0,0,0,5.953,6.463L918.62,651.077a5.37,5.37,0,0,0,4.395-3.632l24.76-74.666a5.381,5.381,0,0,0-5.359-7.063l-121.372,5.762A5.381,5.381,0,0,0,816.044,575.693Z" transform="translate(324.766 -44.998)" fill="#264653"/>
    <ellipse id="Ellipse_42" data-name="Ellipse 42" cx="4.877" cy="3.134" rx="4.877" ry="3.134" transform="translate(1197.127 565.922) rotate(-84)" fill="#fff"/>
  </g>
</svg>
