<svg xmlns="http://www.w3.org/2000/svg" xmlns:xlink="http://www.w3.org/1999/xlink" width="639.028" height="508.029" viewBox="0 0 639.028 508.029">
  <defs>
    <linearGradient id="linear-gradient" x1="0.5" y1="1" x2="0.5" gradientUnits="objectBoundingBox">
      <stop offset="0" stop-color="gray" stop-opacity="0.251"/>
      <stop offset="0.54" stop-color="gray" stop-opacity="0.122"/>
      <stop offset="1" stop-color="gray" stop-opacity="0.102"/>
    </linearGradient>
  </defs>
  <g id="Group_27" data-name="Group 27" transform="translate(-129.486 -242)">
    <path id="Path_198" data-name="Path 198" d="M468.34,139.037c-40.434-1.406-78.951-14.457-115.724-28.739s-73.2-30.107-112.662-37.673c-25.384-4.867-54.416-5.554-74.865,8.053-19.686,13.12-26.046,35.7-29.464,56.684-2.574,15.781-4.086,32.387,2.968,47.163,4.892,10.258,13.582,18.88,19.586,28.739,20.911,34.187,6.135,76.345-16.525,109.726-10.621,15.663-22.96,30.613-31.157,47.269s-12,35.767-4.823,52.773c7.116,16.868,24.066,29.513,42.421,38.416,37.292,18.087,81.218,23.26,124.083,26.19,94.857,6.491,190.214,3.68,285.32.868,35.2-1.043,70.548-2.1,105.172-7.541,19.23-3.024,39.079-7.816,53.042-19.4,17.718-14.7,22.11-39.6,10.24-58.027-19.923-30.919-74.971-38.6-88.915-71.785-7.659-18.262.213-38.6,11.346-55.547,23.891-36.336,63.931-68.217,66.043-109.751,1.449-28.533-17.806-57.1-47.569-70.6-31.194-14.2-74.465-12.4-97.468,11.021C545.685,131.015,504.038,140.274,468.34,139.037Z" transform="translate(35.913 188.812)" fill="#264653" opacity="0.1"/>
    <path id="Path_199" data-name="Path 199" d="M294.25,580.771,80.408,579.728,59.16,529.891l75.133-5.454L121.2,469.8l148.6-19.261L127.5,401.066l12.57-2.986,228.817,37.329-12.6,85.273-18.012,46.863Z" transform="translate(107.287 92.619)" fill="#f4a261"/>
    <path id="Path_200" data-name="Path 200" d="M187,698.718s13.12-2.1,20.992,7.172c0,0-5.773,4.548-18.193-1.749Z" transform="translate(3.975 -47.244)" fill="#6c63ff"/>
    <path id="Path_201" data-name="Path 201" d="M181.563,698.51s-8.372,10.3-4.248,21.773c0,0,6.822-2.73,7.566-16.637Z" transform="translate(8.038 -47.243)" fill="#6c63ff"/>
    <path id="Path_202" data-name="Path 202" d="M172.76,669.4s5.248-9.628,26.24,3.849c0,0-2.8,6.472-12.07,5.948S175.209,674.472,172.76,669.4Z" transform="translate(9.318 -35.069)" fill="#6c63ff"/>
    <path id="Path_203" data-name="Path 203" d="M163.415,670.284s-10.89-1.249-11.945,23.678c0,0,6.9,1.431,11.808-6.454S166.171,675.2,163.415,670.284Z" transform="translate(17.307 -36.647)" fill="#6c63ff"/>
    <path id="Path_233" data-name="Path 233" d="M220.566,195.139l-1.006-.306c12.4-40.441,15.494-66.224,8.715-72.69l.718-.762C236.185,128.2,233.267,153.7,220.566,195.139Z" transform="translate(-8.243 169.321)" fill="#444053"/>
    <path id="Path_234" data-name="Path 234" d="M165.617,332.353l-1.487-.531c1.318-3.7,2.736-7.466,4.223-11.171,12.945-32.262,23.966-62.276,31.032-85.317l1.293-.625c-7.078,23.085-17.906,54.248-30.863,86.554C168.335,324.9,166.923,328.642,165.617,332.353Z" transform="translate(12.557 126.795)" fill="#444053"/>
    <g id="Group_26" data-name="Group 26">
      <path id="Path_204" data-name="Path 204" d="M160.44,632.915s6.123-16.968,28.339-4.9c0,0-5.073,15.569-26.065,10.671Z" transform="translate(13.941 -19.164)" fill="#2a9d8f"/>
      <path id="Path_205" data-name="Path 205" d="M149.52,593.053s11.546-17.143,32.013-1.249c0,0-7.172,16.094-30.263,7.347Z" transform="translate(18.039 -4.668)" fill="#2a9d8f"/>
      <path id="Path_206" data-name="Path 206" d="M145.6,555.016s13.47-15.75,33.737,0c0,0-12.77,13.82-33.737,4.023Z" transform="translate(19.51 9.229)" fill="#2a9d8f"/>
      <path id="Path_207" data-name="Path 207" d="M142.24,517.141s13.645-16.444,33.062-.875c0,0-15.394,14.519-33.062,4.723Z" transform="translate(20.771 23.657)" fill="#2a9d8f"/>
      <path id="Path_208" data-name="Path 208" d="M144.2,481.278s14.369-21.167,32.537-6.822c0,0-15.394,18.193-32.537,10.846Z" transform="translate(20.035 38.703)" fill="#2a9d8f"/>
      <path id="Path_209" data-name="Path 209" d="M149.52,442.861s15.219-20.992,32.887-4.9c0,0-18.018,18.193-32.887,8.747Z" transform="translate(18.039 52.804)" fill="#2a9d8f"/>
      <path id="Path_210" data-name="Path 210" d="M157.167,406.419s18.018-19.73,33.737-11.87c0,0-18.774,20.954-34.524,17.106Z" transform="translate(15.465 67.511)" fill="#2a9d8f"/>
      <path id="Path_211" data-name="Path 211" d="M166.834,371.023s20.792-24.166,32.887-16.094c0,0-15.319,18.743-34.362,20.617Z" transform="translate(12.095 82.303)" fill="#2a9d8f"/>
      <path id="Path_212" data-name="Path 212" d="M180.8,334.052s18.2-19.73,31.494-14.832c0,0-15.569,20.467-33.937,20.992Z" transform="translate(7.217 95.376)" fill="#2a9d8f"/>
      <path id="Path_213" data-name="Path 213" d="M194.915,298.063s20.117-18.893,28.864-15.569c0,0-14.519,20.992-29.738,19.767Z" transform="translate(1.333 109.011)" fill="#2a9d8f"/>
      <path id="Path_214" data-name="Path 214" d="M208.32,262.045s17.318-22.572,26.771-20.823c0,0-10.5,20.123-26.771,23.116Z" transform="translate(-4.026 124.388)" fill="#2a9d8f"/>
      <path id="Path_215" data-name="Path 215" d="M221.921,219.692s15.307-17.3,23.578-17.262c0,0-12.083,23.116-24.209,22.9Z" transform="translate(-8.892 138.908)" fill="#2a9d8f"/>
      <path id="Path_216" data-name="Path 216" d="M229.451,178.756l14.788-36.036s.737,32.575-16.669,42.721Z" transform="translate(-11.249 161.314)" fill="#2a9d8f"/>
      <path id="Path_217" data-name="Path 217" d="M240.13,117.244S242.579,87.149,241,84.7c0,0,10.571,25.022-.975,45.838Z" transform="translate(-15.924 183.085)" fill="#2a9d8f"/>
      <path id="Path_218" data-name="Path 218" d="M144.349,636.665s-15.332-9.5-25.259,13.745c0,0,13.645,9.059,27.064-7.816Z" transform="translate(29.457 -23.314)" fill="#2a9d8f"/>
      <path id="Path_219" data-name="Path 219" d="M131.957,595.427s-18.805-8.578-27.927,15.694c0,0,14.526,10,29.638-9.559Z" transform="translate(35.109 -8.009)" fill="#2a9d8f"/>
      <path id="Path_220" data-name="Path 220" d="M123.937,557.326s-13.47-15.75-33.737,0c0,0,12.77,13.82,33.737,4.023Z" transform="translate(40.298 8.362)" fill="#2a9d8f"/>
      <path id="Path_221" data-name="Path 221" d="M121.642,517.141S108,500.7,88.58,516.266c0,0,15.394,14.519,33.062,4.723Z" transform="translate(40.906 23.657)" fill="#2a9d8f"/>
      <path id="Path_222" data-name="Path 222" d="M125.956,479.684s-9.571-23.71-30.376-13.513c0,0,11.246,21.023,29.526,17.449Z" transform="translate(38.279 40.897)" fill="#2a9d8f"/>
      <path id="Path_223" data-name="Path 223" d="M133.063,439.712s-9.515-24.122-30.613-12.939c0,0,12.92,22.11,29.676,16.662Z" transform="translate(35.701 55.835)" fill="#2a9d8f"/>
      <path id="Path_224" data-name="Path 224" d="M148.132,397.544S144.383,371.1,126.89,368.73c0,0,3.711,27.889,18.886,33.581Z" transform="translate(26.531 76.505)" fill="#2a9d8f"/>
      <path id="Path_225" data-name="Path 225" d="M158.865,361.955S157.4,330.092,142.94,328.98c0,0,.487,24.184,14.294,37.485Z" transform="translate(20.508 91.421)" fill="#2a9d8f"/>
      <path id="Path_226" data-name="Path 226" d="M173.788,324.142s-4.311-26.5-18.118-29.732c0,0,1.712,25.659,16.75,36.236Z" transform="translate(15.731 104.393)" fill="#2a9d8f"/>
      <path id="Path_227" data-name="Path 227" d="M192.187,288.986s-.144-27.6-8.578-31.656c0,0-5.229,24.99,6.135,35.18Z" transform="translate(5.698 118.307)" fill="#2a9d8f"/>
      <path id="Path_228" data-name="Path 228" d="M203.188,254.635s-1.181-28.42-9.915-32.425c0,0-2.986,22.491,8.609,34.287Z" transform="translate(1.75 131.486)" fill="#2a9d8f"/>
      <path id="Path_229" data-name="Path 229" d="M219.252,216.549s-.05-23.116-6.285-28.539c0,0-6.2,25.321,3.03,33.187Z" transform="translate(-5.005 144.319)" fill="#2a9d8f"/>
      <path id="Path_230" data-name="Path 230" d="M224.374,175.473,218.308,137s-8.241,31.525,6.354,45.42Z" transform="translate(-6.904 163.46)" fill="#2a9d8f"/>
      <path id="Path_231" data-name="Path 231" d="M222.137,120.109s-15.569-25.865-15.25-28.739c0,0,1.656,27.108,21.242,40.609Z" transform="translate(-3.486 180.582)" fill="#2a9d8f"/>
      <path id="Path_232" data-name="Path 232" d="M221.4,101.29S206.707,64.554,200.06,61.58c0,0,20.992,10.671,22.566,38.66Z" transform="translate(-0.926 191.761)" fill="#2a9d8f"/>
      <path id="Path_235" data-name="Path 235" d="M187.792,611.48c-.2-.219-20.3-22.854-34.312-61.495a227.524,227.524,0,0,1-13.539-70.46c-.962-30.07,5.348-63.644,16.156-94.145l1.175,1.374c-24.266,68.455-14.626,127.113-1.837,162.437,13.863,38.291,33.737,60.676,33.931,60.9Z" transform="translate(21.669 70.257)" fill="#444053"/>
    </g>
    <path id="Path_236" data-name="Path 236" d="M640.119,670.36s-14.163,17.287-2.918,43.421L524.12,762.824,513.268,765.1l-5-21.866,3.342-27.6V700.554Z" transform="translate(-116.58 -36.68)" fill="#d5d6db"/>
    <path id="Path_237" data-name="Path 237" d="M59.16,591.923,215.674,563.39l207.388,33.037L294.25,642.8Z" transform="translate(107.287 30.587)" fill="#6c63ff"/>
    <path id="Path_238" data-name="Path 238" d="M59.16,591.923,215.674,563.39l207.388,33.037L294.25,642.8Z" transform="translate(107.287 30.587)" fill="#ffd046"/>
    <path id="Path_239" data-name="Path 239" d="M144.2,652.47s-14.638,27.733,2.23,53.348l232.1,50.293s-14.407-22.091.743-52.755Z" transform="translate(22.246 -29.967)" fill="#ffd046"/>
    <path id="Path_240" data-name="Path 240" d="M144.2,652.47s-14.638,27.733,2.23,53.348l232.1,50.293s-14.407-22.091.743-52.755Z" transform="translate(22.246 -29.967)" opacity="0.1"/>
    <path id="Path_241" data-name="Path 241" d="M156.577,667.86s-8.365,20.292,0,33.425" transform="translate(16.786 -35.742)" opacity="0.1"/>
    <path id="Path_242" data-name="Path 242" d="M383.407,785.151,512.982,729.86s7.247,1.562,2.561,6.872-129.637,53.729-129.637,53.729l-234.6-55.6Z" transform="translate(17.367 -59.007)" fill="#ffd046"/>
    <path id="Path_243" data-name="Path 243" d="M383.407,785.151,512.982,729.86s7.247,1.562,2.561,6.872-129.637,53.729-129.637,53.729l-234.6-55.6Z" transform="translate(17.367 -59.007)" opacity="0.1"/>
    <path id="Path_244" data-name="Path 244" d="M502.475,742.86s-12.5,14.994,0,37.485" transform="translate(-112.321 -63.885)" opacity="0.1"/>
    <rect id="Rectangle_1099" data-name="Rectangle 1099" width="59.083" height="0.625" transform="translate(394.602 697.419) rotate(-18.45)" opacity="0.1"/>
    <rect id="Rectangle_1100" data-name="Rectangle 1100" width="71.991" height="0.625" transform="translate(394.581 702.449) rotate(-20.82)" opacity="0.1"/>
    <rect id="Rectangle_1101" data-name="Rectangle 1101" width="83.443" height="0.625" transform="translate(394.957 708.378) rotate(-22.26)" opacity="0.1"/>
    <rect id="Rectangle_1102" data-name="Rectangle 1102" width="96.05" height="0.625" transform="translate(395.858 713.606) rotate(-24.31)" opacity="0.1"/>
    <rect id="Rectangle_1103" data-name="Rectangle 1103" width="105.053" height="0.625" transform="matrix(0.916, -0.401, 0.401, 0.916, 396.552, 716.15)" opacity="0.1"/>
    <rect id="Rectangle_1104" data-name="Rectangle 1104" width="125.714" height="0.625" transform="translate(398.005 720.423) rotate(-23.36)" opacity="0.1"/>
    <path id="Path_245" data-name="Path 245" d="M152.23,600.056,262.187,576.94l66.986,12.808-90.1,29.051Z" transform="translate(72.363 25.503)" fill="#fff" opacity="0.3"/>
    <path id="Path_246" data-name="Path 246" d="M652.831,659.69s5.685,2.293,2.349,5.835S524,706.066,524,706.066Z" transform="translate(-122.482 -32.676)" fill="#2a9d8f"/>
    <path id="Path_247" data-name="Path 247" d="M739.412,574.18S725.255,591.461,736.5,617.6L623.42,666.644l-10.852,2.287-5-21.866,3.392-27.589v-15.1Z" transform="translate(-153.841 -0.589)" fill="#d5d6db"/>
    <path id="Path_248" data-name="Path 248" d="M158.46,495.736,314.968,467.21l207.394,33.037L393.55,546.623Z" transform="translate(70.025 66.678)" fill="#264653"/>
    <path id="Path_249" data-name="Path 249" d="M243.458,556.29s-14.644,27.733,2.224,53.348l232.1,50.293s-14.4-22.11.768-52.761Z" transform="translate(-14.998 6.124)" fill="#264653"/>
    <path id="Path_250" data-name="Path 250" d="M243.458,556.29s-14.644,27.733,2.224,53.348l232.1,50.293s-14.4-22.11.768-52.761l-73.4-15.888Z" transform="translate(-14.998 6.124)" opacity="0.1"/>
    <path id="Path_251" data-name="Path 251" d="M255.869,571.68s-8.359,20.286,0,33.424" transform="translate(-20.474 0.349)" opacity="0.1"/>
    <path id="Path_252" data-name="Path 252" d="M482.7,688.971,612.278,633.68s7.241,1.562,2.555,6.872S485.2,694.281,485.2,694.281l-234.6-55.6Z" transform="translate(-19.891 -22.916)" fill="#264653"/>
    <path id="Path_253" data-name="Path 253" d="M482.7,688.971,612.278,633.68s7.241,1.562,2.555,6.872S485.2,694.281,485.2,694.281l-234.6-55.6Z" transform="translate(-19.891 -22.916)" opacity="0.1"/>
    <path id="Path_254" data-name="Path 254" d="M601.765,646.68s-12.5,14.994,0,37.486" transform="translate(-149.579 -27.794)" opacity="0.1"/>
    <rect id="Rectangle_1105" data-name="Rectangle 1105" width="59.083" height="0.625" transform="translate(456.639 637.336) rotate(-18.45)" opacity="0.1"/>
    <rect id="Rectangle_1106" data-name="Rectangle 1106" width="71.991" height="0.625" transform="translate(456.626 642.364) rotate(-20.82)" opacity="0.1"/>
    <rect id="Rectangle_1107" data-name="Rectangle 1107" width="83.443" height="0.625" transform="translate(456.992 648.284) rotate(-22.26)" opacity="0.1"/>
    <rect id="Rectangle_1108" data-name="Rectangle 1108" width="96.05" height="0.625" transform="translate(457.901 653.514) rotate(-24.31)" opacity="0.1"/>
    <rect id="Rectangle_1109" data-name="Rectangle 1109" width="105.053" height="0.625" transform="matrix(0.916, -0.401, 0.401, 0.916, 458.586, 656.05)" opacity="0.1"/>
    <rect id="Rectangle_1110" data-name="Rectangle 1110" width="125.714" height="0.625" transform="translate(460.043 660.323) rotate(-23.36)" opacity="0.1"/>
    <path id="Path_255" data-name="Path 255" d="M251.53,503.876,361.487,480.76l66.986,12.808-90.1,29.051Z" transform="translate(35.101 61.593)" fill="#fff" opacity="0.45"/>
    <path id="Path_256" data-name="Path 256" d="M752.142,563.51s5.679,2.293,2.349,5.829-131.161,40.54-131.161,40.54Z" transform="translate(-159.755 3.415)" fill="#264653"/>
    <path id="Path_257" data-name="Path 257" d="M748.824,464.15s-14.163,31.032-2.918,57.165l-113.081,35.3L622,558.907l-5-21.867,3.342-27.6v-15.1Z" transform="translate(-157.38 40.699)" fill="#d5d6db"/>
    <path id="Path_258" data-name="Path 258" d="M167.89,385.713,324.4,357.18,531.8,390.217,402.98,436.593Z" transform="translate(66.487 107.966)" fill="#ef2d56"/>
    <path id="Path_259" data-name="Path 259" d="M252.921,446.26s-14.663,27.733,2.205,53.348l232.1,50.293s-14.407-22.11.762-52.754Z" transform="translate(-18.544 47.412)" fill="#ef2d56"/>
    <path id="Path_260" data-name="Path 260" d="M252.921,446.26s-14.663,27.733,2.205,53.348l232.1,50.293s-14.407-22.11.762-52.754Z" transform="translate(-18.544 47.412)" opacity="0.1"/>
    <path id="Path_261" data-name="Path 261" d="M265.307,461.65s-8.365,20.292,0,33.424" transform="translate(-24.014 41.637)" opacity="0.1"/>
    <path id="Path_262" data-name="Path 262" d="M492.137,581.943,621.712,540.4s7.247,1.562,2.561,6.872-129.637,39.984-129.637,39.984l-234.6-55.6Z" transform="translate(-23.433 15.37)" fill="#ef2d56"/>
    <path id="Path_263" data-name="Path 263" d="M492.137,581.943,621.712,540.4s7.247,1.562,2.561,6.872-129.637,39.984-129.637,39.984l-234.6-55.6Z" transform="translate(-23.433 15.37)" opacity="0.1"/>
    <path id="Path_264" data-name="Path 264" d="M611.2,536.65s-12.5,14.994,0,37.485" transform="translate(-153.121 13.494)" opacity="0.1"/>
    <rect id="Rectangle_1111" data-name="Rectangle 1111" width="59.083" height="0.625" transform="translate(462.538 568.593) rotate(-18.45)" opacity="0.1"/>
    <rect id="Rectangle_1112" data-name="Rectangle 1112" width="71.991" height="0.625" transform="translate(462.521 573.624) rotate(-20.82)" opacity="0.1"/>
    <rect id="Rectangle_1113" data-name="Rectangle 1113" width="83.443" height="0.625" transform="translate(462.882 579.548) rotate(-22.26)" opacity="0.1"/>
    <rect id="Rectangle_1114" data-name="Rectangle 1114" width="96.05" height="0.625" transform="translate(463.799 584.771) rotate(-24.31)" opacity="0.1"/>
    <rect id="Rectangle_1115" data-name="Rectangle 1115" width="105.053" height="0.625" transform="matrix(0.916, -0.401, 0.401, 0.916, 464.487, 587.313)" opacity="0.1"/>
    <rect id="Rectangle_1116" data-name="Rectangle 1116" width="125.714" height="0.625" transform="translate(465.943 591.59) rotate(-23.36)" opacity="0.1"/>
    <path id="Path_265" data-name="Path 265" d="M260.96,393.846,370.917,370.73,437.9,383.538l-90.1,29.051Z" transform="translate(31.563 102.881)" fill="#fff" opacity="0.3"/>
    <path id="Path_266" data-name="Path 266" d="M761.572,453.48s5.685,2.293,2.349,5.835-131.161,40.54-131.161,40.54Z" transform="translate(-163.294 44.703)" fill="#ef2d56"/>
    <path id="Path_267" data-name="Path 267" d="M386.271,149.9s-23.741-1.431-20.967,15.225a4.063,4.063,0,0,0,2.112,4.28s.044-1.25,2.437-.818a10.652,10.652,0,0,0,2.586.125,5.385,5.385,0,0,0,3.155-1.3h0s6.679-2.761,9.278-13.682c0,0,1.924-2.38,1.874-2.993l-4.023,1.712s1.368,2.893.294,5.3c0,0-.131-5.192-.906-5.073-.156,0-2.08,1.006-2.08,1.006s2.355,5.042.575,8.7c0,0,.675-6.21-1.312-8.341l-2.824,1.649s2.755,5.2.887,9.453c0,0,.481-6.516-1.481-9.053l-2.561,2s2.593,5.129,1.012,8.653c0,0-.206-7.585-1.562-8.159a15.439,15.439,0,0,0-2.58,2.786s1.774,3.749.668,5.692c0,0-.668-5.054-1.25-5.079,0,0-2.23,3.349-2.462,5.623a12.158,12.158,0,0,1,1.918-5.96,6.691,6.691,0,0,0-3.411,1.768s.344-2.368,3.967-2.574c0,0,1.843-2.543,2.337-2.693,0,0-3.6-.306-5.785.662,0,0,1.924-2.23,6.441-1.249l2.5-2.062s-4.736-.625-6.747.069c0,0,2.318-1.974,7.428-.537l2.755-1.643a25.035,25.035,0,0,0-6.447-.556s2.536-1.368,7.253.112l1.962-.881s-2.955-.581-3.824-.675-.912-.331-.912-.331a10.314,10.314,0,0,1,5.56.625S386.353,150.164,386.271,149.9Z" transform="translate(-62.848 158.63)" fill="#2a9d8f"/>
    <path id="Path_268" data-name="Path 268" d="M920.871,259.482s-23.741-1.431-20.967,15.225a4.063,4.063,0,0,0,2.112,4.28s.044-1.249,2.437-.818a11.006,11.006,0,0,0,2.586.125,5.367,5.367,0,0,0,3.124-1.3h0s6.685-2.761,9.278-13.682c0,0,1.924-2.38,1.874-2.993l-4.011,1.712s1.368,2.893.293,5.3c0,0-.131-5.192-.9-5.073-.156,0-2.087,1.006-2.087,1.006s2.355,5.042.581,8.7c0,0,.675-6.21-1.318-8.341l-2.824,1.649s2.755,5.2.887,9.453c0,0,.481-6.516-1.481-9.053l-2.555,2s2.587,5.129,1.006,8.653c0,0-.206-7.585-1.562-8.159a15.666,15.666,0,0,0-2.58,2.786s1.774,3.749.675,5.692c0,0-.675-5.054-1.249-5.079,0,0-2.23,3.349-2.462,5.623a12.12,12.12,0,0,1,1.924-5.96,6.723,6.723,0,0,0-3.417,1.768s.35-2.368,3.967-2.574c0,0,1.843-2.543,2.337-2.7,0,0-3.6-.3-5.785.668,0,0,1.924-2.23,6.441-1.25l2.5-2.062s-4.742-.625-6.747.069c0,0,2.312-1.974,7.428-.537l2.749-1.643a25.036,25.036,0,0,0-6.448-.556s2.537-1.368,7.253.112l1.968-.881s-2.961-.581-3.83-.675-.912-.331-.912-.331a10.239,10.239,0,0,1,5.56.625S920.946,259.744,920.871,259.482Z" transform="translate(-263.453 117.511)" fill="#2a9d8f" opacity="0.1"/>
    <path id="Path_269" data-name="Path 269" d="M447.248,306.328S436.9,284.88,423.732,295.451a4.058,4.058,0,0,0-2.705,3.93s1.093-.569,1.874,1.731a11.07,11.07,0,0,0,1.15,2.312,5.391,5.391,0,0,0,2.68,2.124h0s5.667,4.486,16.469,1.424c0,0,3.018.519,3.511.156l-3.449-2.668s-1.874,2.605-4.486,2.836c0,0,4.473-2.643,3.992-3.255-.1-.125-1.874-1.331-1.874-1.331s-3.255,4.517-7.316,4.748c0,0,5.748-2.437,6.635-5.217L437.4,300.58s-3.2,4.948-7.822,5.385c0,0,5.923-2.755,7.178-5.7l-2.986-1.25s-3.217,4.761-7.066,5.1c0,0,6.522-3.88,6.36-5.348a15.833,15.833,0,0,0-3.692-.893s-2.387,3.367-4.636,3.367c0,0,4.08-3.055,3.83-3.549,0,0-4.011-.312-6.123.625a12.163,12.163,0,0,1,6.141-1.25,6.729,6.729,0,0,0-3.211-2.118s2.237-.85,4.18,2.205c0,0,3.124.369,3.492.725,0,0-1.493-3.286-3.4-4.717,0,0,2.886.581,4.2,5l3.03,1.2s-1.743-4.448-3.349-5.854c0,0,2.849,1.056,4.092,6.248l2.774,1.6a24.719,24.719,0,0,0-2.655-5.9s2.43,1.549,3.436,6.385l1.731,1.287s-.937-2.868-1.25-3.667-.156-.962-.156-.962a10.252,10.252,0,0,1,2.174,5.154S447.023,306.516,447.248,306.328Z" transform="translate(-83.841 105.101)" fill="#2a9d8f" opacity="0.1"/>
    <path id="Path_270" data-name="Path 270" d="M831.028,202.708s-10.34-21.448-23.516-10.877a4.065,4.065,0,0,0-2.705,3.93s1.1-.562,1.874,1.731a10.837,10.837,0,0,0,1.156,2.318,5.36,5.36,0,0,0,2.674,2.118h0s5.673,4.486,16.469,1.431c0,0,3.018.512,3.517.15l-3.43-2.674s-1.874,2.611-4.479,2.843c0,0,4.467-2.649,3.986-3.261-.1-.125-1.874-1.331-1.874-1.331s-3.249,4.517-7.316,4.748c0,0,5.754-2.437,6.641-5.21l-2.855-1.649s-3.2,4.942-7.822,5.385c0,0,5.923-2.761,7.185-5.71l-2.993-1.25s-3.218,4.767-7.06,5.1c0,0,6.516-3.88,6.354-5.342a15.454,15.454,0,0,0-3.686-.893s-2.386,3.361-4.642,3.361c0,0,4.086-3.055,3.836-3.549,0,0-4.011-.312-6.129.625a12.158,12.158,0,0,1,6.141-1.25,6.689,6.689,0,0,0-3.2-2.118s2.237-.85,4.18,2.205c0,0,3.124.375,3.492.731,0,0-1.493-3.292-3.4-4.723,0,0,2.886.587,4.2,5.029l3.036,1.2s-1.743-4.455-3.349-5.86c0,0,2.849,1.056,4.086,6.248l2.78,1.6a24.95,24.95,0,0,0-2.661-5.9s2.437,1.549,3.436,6.385l1.731,1.287s-.931-2.868-1.25-3.667-.156-.956-.156-.956a10.277,10.277,0,0,1,2.168,5.154S830.835,202.908,831.028,202.708Z" transform="translate(-227.852 143.984)" fill="#2a9d8f" opacity="0.1"/>
    <path id="Path_271" data-name="Path 271" d="M883.907,372.515s-10.34-21.454-23.535-10.883a4.065,4.065,0,0,0-2.705,3.93s1.1-.562,1.874,1.731a10.825,10.825,0,0,0,1.15,2.318,5.361,5.361,0,0,0,2.674,2.118h0s5.673,4.492,16.475,1.431c0,0,3.011.519,3.511.15l-3.449-2.668s-1.874,2.612-4.486,2.843c0,0,4.467-2.649,3.986-3.261-.1-.125-1.874-1.331-1.874-1.331s-3.249,4.517-7.316,4.754c0,0,5.754-2.443,6.641-5.217l-2.818-1.662s-3.2,4.948-7.822,5.385c0,0,5.923-2.761,7.185-5.71l-2.993-1.25s-3.218,4.761-7.06,5.1c0,0,6.522-3.88,6.36-5.348a15.521,15.521,0,0,0-3.692-.893s-2.387,3.361-4.642,3.361c0,0,4.086-3.055,3.836-3.549,0,0-4.011-.312-6.129.625a12.2,12.2,0,0,1,6.148-1.249,6.679,6.679,0,0,0-3.211-2.118s2.237-.856,4.18,2.205c0,0,3.124.369,3.492.725,0,0-1.493-3.286-3.4-4.723,0,0,2.886.587,4.2,5.029l3.03,1.2s-1.743-4.454-3.349-5.854c0,0,2.849,1.05,4.086,6.248l2.78,1.593a24.945,24.945,0,0,0-2.661-5.9s2.437,1.549,3.443,6.391l1.73,1.249s-.937-2.868-1.249-3.667-.156-.956-.156-.956a10.215,10.215,0,0,1,2.168,5.154S883.713,372.7,883.907,372.515Z" transform="translate(-247.687 80.267)" fill="#2a9d8f" opacity="0.1"/>
    <ellipse id="Ellipse_6" data-name="Ellipse 6" cx="14.363" cy="1.606" rx="14.363" ry="1.606" transform="translate(241.293 728.693)" fill="#6c63ff" opacity="0.1"/>
    <ellipse id="Ellipse_7" data-name="Ellipse 7" cx="14.363" cy="1.606" rx="14.363" ry="1.606" transform="translate(147.135 701.404)" fill="#6c63ff" opacity="0.1"/>
    <ellipse id="Ellipse_8" data-name="Ellipse 8" cx="14.363" cy="1.606" rx="14.363" ry="1.606" transform="translate(313.065 746.818)" fill="#6c63ff" opacity="0.1"/>
    <ellipse id="Ellipse_9" data-name="Ellipse 9" cx="14.363" cy="1.606" rx="14.363" ry="1.606" transform="translate(680.859 707.339)" fill="#6c63ff" opacity="0.1"/>
    <ellipse id="Ellipse_10" data-name="Ellipse 10" cx="14.363" cy="1.606" rx="14.363" ry="1.606" transform="translate(561.337 699.548)" fill="#6c63ff" opacity="0.1"/>
    <ellipse id="Ellipse_11" data-name="Ellipse 11" cx="16.987" cy="2.918" rx="16.987" ry="2.918" transform="translate(481.393 734.922)" fill="#6c63ff" opacity="0.1"/>
    <path id="Path_272" data-name="Path 272" d="M682.2,790.14s-23.653,12.22-11.433,26.615a4.572,4.572,0,0,0,4.473,2.905s-.662-1.212,1.874-2.18a12.182,12.182,0,0,0,2.555-1.356,6,6,0,0,0,2.287-3.055h0s4.836-6.473,1.087-18.449c0,0,.487-3.386.063-3.936l-2.874,3.942s2.968,1.993,3.311,4.923c0,0-3.124-4.917-3.749-4.373-.137.112-1.424,2.155-1.424,2.155s5.148,3.492,5.529,8.028c0,0-2.9-6.354-6.029-7.26l-1.793,3.2s5.623,3.424,6.248,8.572c0,0-3.267-6.529-6.6-7.847L674.4,805.4s5.423,3.449,5.923,7.734c0,0-4.536-7.166-6.166-6.941,0,0-1.025,3.174-.887,4.155,0,0,3.83,2.562,3.9,5.079,0,0-3.536-4.467-4.08-4.173,0,0-.225,4.492.862,6.829a13.48,13.48,0,0,1-1.568-6.829,7.5,7.5,0,0,0-2.268,3.649s-1.018-2.468,2.337-4.742c0,0,.319-3.492.706-3.923,0,0-3.63,1.774-5.173,3.948,0,0,.569-3.242,5.492-4.854l1.249-3.424s-4.923,2.087-6.441,3.924c0,0,1.093-3.218,6.829-4.761l1.7-3.124a28.688,28.688,0,0,0-6.51,3.124s1.656-2.768,7.035-4.042l1.381-1.968s-3.174,1.131-4.061,1.537-1.062.206-1.062.206a11.49,11.49,0,0,1,5.691-2.586S682.416,790.353,682.2,790.14Z" transform="translate(-176.239 -81.626)" fill="#2a9d8f"/>
    <path id="Path_273" data-name="Path 273" d="M676.268,279.137c-4.086-11.1-26.577-12.145-36.336-9.315-6.935,2.018-21.554,4.292-29.364,5.435l-.506-.481c1.012-.3,1.037-1.037.912-2.13a33.322,33.322,0,0,1,.062-4.323c4.786,1.487,9.047-2.03,9.047-2.03h0c5.623-2.5,4.111-13.195,5.185-16.119.806-2.187,1.674-15.069,2.062-21.492h.081l.044-2.155c.056-.931.081-1.474.081-1.474s.55-15.706,1.624-18.886c1-2.924,1.812-17.656,1.937-19.992v-.306l-.081-1.362c.056-.993.081-2.1.075-3.261,0-5.342-.556-12.07-.625-13.157v-.569c.044-2.28-.244-13.7-9.959-18.018-3.58-1.6-7.884-3.5-12.052-5.36-1.075-9.278-3.53-18.505-3.317-27.852,0-1.406.125-2.811.262-4.211,0,.406-.044.818-.05,1.25v2.724c.369-11.689,4.786-23.441,4.373-34.88-.037,1.118-.119,2.243-.225,3.367a36.316,36.316,0,0,0-1.2-11.489,6.8,6.8,0,0,0-1.962-3.561,8.078,8.078,0,0,0-3.424-1.356,68.852,68.852,0,0,0-8.99-1.674,13.882,13.882,0,0,0-2.024-3.93c-6.335-8.7-15.719-16.868-26.815-18.743-5.567-.937-11.97-.156-15.756,3.824a11.82,11.82,0,0,0-1.112,1.125c-2.037,2.43-2.911,5.623-5,8.047-.137.162-.294.312-.444.469-4.086,3.655-10.452,4.417-14.994,7.7a18,18,0,0,0-2.243,1.955,38.033,38.033,0,0,0-4.9,5.954c-2.043,2.874-4.142,5.866-4.792,9.3-1.306,6.872,3.374,13.389,4.242,20.3,1.937,15.475-15.188,29.207-11.945,44.476a20.367,20.367,0,0,0,5.51,9.89c-6.679,6.048-12.364,11.914-12.364,11.914v.35h-1.056l.106,1.25h-.106l.581,6.779-.581,9.871v.931h.038c.194,3.617.962,16.625,1.874,19.367,1.075,3.18,1.618,18.886,1.618,18.886s1.187,22.2,2.274,25.134-.456,13.6,5.185,16.119h0a11.871,11.871,0,0,0,5.667,2.349c-.287,2.337-.106,4.03.825,4.561a2.724,2.724,0,0,0,1.312.375,13.93,13.93,0,0,0-1.018,1.781,26.465,26.465,0,0,1-6.547-1.543c-6.06-2.5-26.171-8.122-32.013-4.167s-19.9,7.541-13.407,23.46,9.515,16.319,9.515,16.319a23.115,23.115,0,0,1,5.192,5.217c1.949,2.93,20.111,9.634,24.653,9.634a44.48,44.48,0,0,1,5.779.287s-4.929,4.323-4.273,6.835-1.5,22.616-1.5,22.616,5,5.036,7.135-1.568l.075.1c.4.544,2.561,3,6.629-.1a37.16,37.16,0,0,1,5.285-3.349l19.692-2.786a55.74,55.74,0,0,1,6.166-.044c3.124.256,6.191-1.593,8.122-3.024,4.08,1.549,8.665,3.242,10.846,3.861,4.423,1.25,24.753,6.7,29.507,5a6.6,6.6,0,0,0,2.562-1.824l4.536.144-2.124.425s4.136.069,9.759.144l-.237.137,7.053-.062c10.321.094,21.917.125,23.441-.219,2.387-.531,14.788-.156,18.443,0h1.018s13.626-2.718,8-16.544c-4.323-10.621-17.612-13.707-23.51-14.557,1.662-.331,3.093-.587,4.042-.737,4.117-.625,12.114-4.373,12.764-5.654s7.353-5,9.084-7.116S680.373,290.239,676.268,279.137ZM563.406,310.207l-.669.219-.45.15-.862.85c-.687-.462-1.424-.95-2.193-1.449C560.588,310.057,561.981,310.138,563.406,310.207Zm59.546,17.606Z" transform="translate(-100.106 198.572)" fill="url(#linear-gradient)"/>
    <path id="Path_274" data-name="Path 274" d="M686.65,318.721s9.559,24.99,14.994,22.491,3.961-13.12,5-16.031,2.187-24.99,2.187-24.99.525-15.619,1.562-18.78c.962-2.905,1.743-17.556,1.874-19.861v-.306l-1.031-18.118L705.4,241.67l-13.532,5-1.874,10.7-.731,4.18-.312,1.781Z" transform="translate(-183.516 124.183)" fill="#2a9d8f"/>
    <path id="Path_275" data-name="Path 275" d="M691.69,358.3s9.121,7.466,11.87,8.122S708,372.9,708,372.9" transform="translate(-185.407 80.419)" opacity="0.1"/>
    <path id="Path_276" data-name="Path 276" d="M551.615,320.471s-9.559,24.99-14.994,22.491-3.961-13.12-5-16.031-2.187-24.99-2.187-24.99-.525-15.619-1.562-18.78c-.962-2.905-1.743-17.556-1.874-19.861v-.306l1.037-18.118,5.835-1.456,13.532,5,1.874,10.7.731,4.18.313,1.781Z" transform="translate(-123.233 123.527)" fill="#2a9d8f"/>
    <rect id="Rectangle_1117" data-name="Rectangle 1117" width="21.335" height="33.256" transform="translate(469.291 310.262)" fill="#3e373a"/>
    <rect id="Rectangle_1118" data-name="Rectangle 1118" width="21.335" height="33.256" transform="translate(469.291 310.262)" opacity="0.1"/>
    <path id="Path_277" data-name="Path 277" d="M557.884,405.4s-7.291,8.016-4.586,9.471,20.2,28.739,20.2,28.739,57.478,7.078,68.317-3.542,10.621-29.595,10.621-29.595-8.709,1.874-9.659.856-6.166-5.929-6.166-5.929S562.882,400.923,557.884,405.4Z" transform="translate(-133.25 63.492)" fill="#264653"/>
    <path id="Path_279" data-name="Path 279" d="M651.962,209.883l-18.743,14.994-5.667.412-2.08.15L590.529,228l-36.236-2.649-5.392-.394-6.872-.5L527.66,210.714a246.072,246.072,0,0,1,19.08-18.249c3.511-2.905,6.829-5.254,9.246-6.179l.412-.144a10.284,10.284,0,0,0,3.961-2.761c7.035-7.253,13.538-25.153,13.538-25.153s31.032-16.031,27.283,5,13.951,15.831,13.951,15.831l5.835,2.661,2.305,1.056,5.879,2.693,13.264,6.085C652.824,196.345,651.962,209.883,651.962,209.883Z" transform="translate(-123.856 157.688)" fill="#f0b67f"/>
    <circle id="Ellipse_12" data-name="Ellipse 12" cx="27.908" cy="27.908" r="27.908" transform="translate(437.31 277.225)" opacity="0.1"/>
    <path id="Path_280" data-name="Path 280" d="M651.383,250.018H526v-.306l1.037-18.118a246.072,246.072,0,0,1,19.08-18.249l78.719-3.124,3.661-3.861,13.264,6.085c10.415,4.786,9.578,18.324,9.578,18.324S652.763,246.457,651.383,250.018Z" transform="translate(-123.233 137.433)" opacity="0.1"/>
    <path id="Path_281" data-name="Path 281" d="M651.383,249.018H526v-.306l1.037-18.118a246.066,246.066,0,0,1,19.08-18.249l78.719-3.124,3.661-3.861,13.264,6.085c10.415,4.786,9.578,18.324,9.578,18.324S652.763,245.457,651.383,249.018Z" transform="translate(-123.233 137.808)" fill="#2a9d8f"/>
    <path id="Path_282" data-name="Path 282" d="M589.1,190.641s19.78,25.2,46.126-.519,2.918,57.371,2.918,57.371l-56.853,6.747Z" transform="translate(-143.98 145.38)" opacity="0.1"/>
    <path id="Path_283" data-name="Path 283" d="M589.1,192.641s19.78,25.2,46.126-.519,2.918,57.371,2.918,57.371l-56.853,6.747Z" transform="translate(-143.98 144.629)" fill="#2a9d8f"/>
    <path id="Path_284" data-name="Path 284" d="M632.2,202.381l2.093,31.919,2.243,10.621,1.712,8.122s4.373,62.476,3.124,65.6.625,5.623.887,7.285-.262,5.835-.056,7.71,0,2.705-4.786,2.037-11.458-1.831-11.458-1.831-16.868,1.25-22.7-.831-16.868-2.087-16.868-2.087-16.662.419-22.073-.206-8.334,6.666-11.87,4.579,4.161-22.279,6.66-28.114-3.33-20.617-3.33-20.617l7.5-41.59,1.668-9.428V205.911l.412-.144a10.283,10.283,0,0,0,3.961-2.761l1.874,29.826,58.727,2.087V201.35" transform="translate(-132.816 139.313)" opacity="0.1"/>
    <path id="Path_285" data-name="Path 285" d="M632.2,200.381l2.093,31.919,2.243,10.621,1.712,8.122s4.373,62.476,3.124,65.6.625,5.623.887,7.285-.262,5.835-.056,7.71,0,2.705-4.786,2.037-11.458-1.831-11.458-1.831-16.868,1.25-22.7-.831-16.868-2.087-16.868-2.087-16.662.419-22.073-.206-8.334,6.666-11.87,4.579,4.161-22.279,6.66-28.114-3.33-20.617-3.33-20.617l7.5-41.59,1.668-9.428V203.911l.412-.144a10.283,10.283,0,0,0,3.961-2.761l1.874,29.826,58.727,2.087V199.35" transform="translate(-132.816 140.064)" fill="#2a9d8f"/>
    <path id="Path_286" data-name="Path 286" d="M633.706,76.7a6.884,6.884,0,0,0-1.874-3.536,7.672,7.672,0,0,0-3.3-1.349,65.175,65.175,0,0,0-8.672-1.662,13.886,13.886,0,0,0-1.874-3.892c-6.123-8.647-15.182-16.8-25.84-18.643-5.579-.968-12.045-.1-15.619,4.3-1.962,2.418-2.805,5.623-4.786,8-3.817,4.611-10.708,5.179-15.519,8.747-2.568,1.874-4.43,4.592-6.248,7.228-1.968,2.855-3.992,5.829-4.617,9.24-1.25,6.816,3.255,13.314,4.086,20.192,1.874,15.388-14.619,29.039-11.5,44.22,1.818,8.853,10,15.088,18.455,18.249,2.98,1.118,6.385,2.23,7.778,5.092.625,1.25.731,2.693,1.318,3.955,1.974,4.211,8.465,4.373,11.952,1.306s4.586-8.028,5-12.658c1.674-20.217-6.423-40.191-5.479-60.458.281-6.129,2.005-13.082,7.5-15.856,7.391-3.749,16.281,2.5,24.416,1.306a48.437,48.437,0,0,1,2.337,29.557c-1.293,5.392-3.53,10.621-3.692,16.181-.244,8.465,4.323,16.2,8.272,23.685a12.6,12.6,0,0,1,1.668,4.567,11.008,11.008,0,0,1-.893,4.779c-2.23,6-6.079,11.577-6.516,17.968a2.905,2.905,0,0,0,.469,2.137,2.686,2.686,0,0,0,1.612.725c6.747,1.156,12.583-4.823,15.875-10.827a50.756,50.756,0,0,0,6.26-21.567c.681-12.72-3.88-25.234-3.6-37.966C631,105.237,637.536,90.662,633.706,76.7Z" transform="translate(-127.567 197.135)" opacity="0.1"/>
    <path id="Path_287" data-name="Path 287" d="M634.706,75.7a6.884,6.884,0,0,0-1.874-3.536,7.672,7.672,0,0,0-3.3-1.349,65.175,65.175,0,0,0-8.672-1.662,13.886,13.886,0,0,0-1.874-3.892c-6.123-8.647-15.182-16.8-25.84-18.643-5.579-.968-12.045-.1-15.619,4.3-1.962,2.418-2.805,5.623-4.786,8-3.817,4.611-10.708,5.179-15.519,8.747-2.568,1.874-4.43,4.592-6.248,7.228-1.968,2.855-3.992,5.829-4.617,9.24-1.25,6.816,3.255,13.314,4.086,20.192,1.874,15.388-14.619,29.039-11.5,44.22,1.818,8.853,10,15.088,18.455,18.249,2.98,1.118,6.385,2.23,7.778,5.092.625,1.25.731,2.693,1.318,3.955,1.974,4.211,8.466,4.373,11.952,1.306s4.586-8.028,5-12.658c1.674-20.217-6.423-40.191-5.479-60.458.281-6.129,2.005-13.082,7.5-15.856,7.391-3.749,16.281,2.5,24.415,1.306a48.437,48.437,0,0,1,2.337,29.557c-1.293,5.392-3.53,10.621-3.692,16.181-.244,8.465,4.323,16.2,8.272,23.685a12.6,12.6,0,0,1,1.668,4.567,11.008,11.008,0,0,1-.893,4.779c-2.23,6-6.079,11.577-6.516,17.968a2.9,2.9,0,0,0,.469,2.137,2.687,2.687,0,0,0,1.612.725c6.747,1.156,12.583-4.823,15.875-10.827a50.756,50.756,0,0,0,6.26-21.567c.681-12.72-3.88-25.234-3.6-37.966C631.995,104.237,638.536,89.662,634.706,75.7Z" transform="translate(-127.942 197.51)" fill="#3e373a"/>
    <path id="Path_288" data-name="Path 288" d="M581.79,482.167l24.784.793-3.555-18.38-18.986,1.806Z" transform="translate(-88.827 67.665)" fill="#c3c7d9"/>
    <path id="Path_289" data-name="Path 289" d="M724.121,443.16c-1.668,2.08-8.122,5.829-8.747,7.078s-8.328,5-12.289,5.623-16.45,3.336-18.743,4.792c-1.643,1.05-14.832,4.373-23.5,6.216a66.68,66.68,0,0,1-7.116,1.281c-3.748.206-44.77-13.745-44.77-13.745l7.909-8.122.437-.15c2.237-.756,12.57-4.248,18.305-5.91,6.46-1.874,13.957-9.578,13.957-9.578s11.033-3.749,12.5-4.167-3.748-14.576-3.748-14.576,23.947-3.324,33.318-6.141,31.032-1.774,34.986,9.265S725.814,441.08,724.121,443.16Z" transform="translate(-154.363 63.107)" fill="#264653"/>
    <path id="Path_290" data-name="Path 290" d="M586.852,509.493s-4.786,5-9.578,4.586-21.548,1.25-21.548,1.25a33.589,33.589,0,0,0-8.44,4.892c-3.917,3.086-6,.625-6.385.1l-.069-.1c-2.087,6.566-6.872,1.562-6.872,1.562s2.08-19.992,1.443-22.491,4.117-6.791,4.117-6.791l5.623-1.431,14.244-3.649L579.8,494.5Z" transform="translate(-126.22 31.967)" fill="#ffd046"/>
    <path id="Path_291" data-name="Path 291" d="M545.118,493.26,540.9,522.511l-.069-.1c-2.087,6.566-6.872,1.562-6.872,1.562s2.08-19.992,1.443-22.491,4.117-6.791,4.117-6.791Z" transform="translate(-126.22 29.776)" opacity="0.1"/>
    <path id="Path_292" data-name="Path 292" d="M599,360.08s11.033,3.749,20.617,0" transform="translate(-150.625 79.751)" opacity="0.1"/>
    <path id="Path_293" data-name="Path 293" d="M659.29,371.42s4.58,2.287,8.122,0" transform="translate(-173.249 75.496)" opacity="0.1"/>
    <path id="Path_294" data-name="Path 294" d="M659.29,379.47s7.7,1.031,9.165-1.05" transform="translate(-173.249 72.869)" opacity="0.1"/>
    <path id="Path_295" data-name="Path 295" d="M655.29,396.123s14.469-1.874,18.062-4.373" transform="translate(-171.748 67.867)" opacity="0.1"/>
    <path id="Path_296" data-name="Path 296" d="M584.62,391.75s8.122,4.579,14.163,4.373" transform="translate(-145.229 67.867)" opacity="0.1"/>
    <path id="Path_297" data-name="Path 297" d="M660.836,491.916a66.695,66.695,0,0,1-7.116,1.281c-3.748.206-44.77-13.745-44.77-13.745l7.909-8.122.437-.15c1.25.881,2.274,1.637,3.005,2.212,3.442,2.711,6.766-.831,8.016-.831s12.077,8.953,12.077,8.953,10,2.293,11.664,4.373,7.5,1.668,8.534,3.124A5.572,5.572,0,0,1,660.836,491.916Z" transform="translate(-154.359 38.061)" opacity="0.1"/>
    <path id="Path_298" data-name="Path 298" d="M531.992,413.309s-10.109.581-15.938-1.874-25.2-8.122-30.819-4.142-19.161,7.5-12.914,23.328,9.165,16.244,9.165,16.244a22.555,22.555,0,0,1,5,5.186c1.874,2.918,19.367,9.577,23.741,9.577s12.077,0,22.9,7.5,20.617,8.334,20.617,8.334,13.745,5.623,18.024,6.872,23.835,6.66,28.42,5,7.5-12.083,7.5-12.083,2.08-9.371,1.037-10.827-6.872-1.043-8.534-3.124-11.664-4.373-11.664-4.373-10.8-8.959-12.052-8.959-4.573,3.536-8.016.831A182.865,182.865,0,0,0,546.9,437.05C538.99,432.883,531.992,413.309,531.992,413.309Z" transform="translate(-102.485 62.551)" fill="#264653"/>
    <path id="Path_299" data-name="Path 299" d="M536.27,427.275a11.933,11.933,0,0,1,10.24,2.705c5,4.167,21.817,12.533,21.817,12.533" transform="translate(-127.087 54.627)" opacity="0.1"/>
    <path id="Path_300" data-name="Path 300" d="M720.406,427s-22.285,3.374-26.446,7.953" transform="translate(-186.259 54.639)" opacity="0.1"/>
    <path id="Path_301" data-name="Path 301" d="M742.891,518.658h-.981c-3.524-.125-15.463-.5-17.762,0-2.705.625-38.529,0-38.529,0l7-1.456s-2.6-9.109-.95-9.865c0,0-9.371-6.173-2.305-10.34a21.92,21.92,0,0,1,14.682-2.412l17.737-6.01,3.4-1.156s19.992,1.043,25.4,14.788S742.891,518.658,742.891,518.658Z" transform="translate(-183.129 31.967)" fill="#ffd046"/>
    <path id="Path_302" data-name="Path 302" d="M764.614,518.677h-.981c5.816-4.8,18.974-19.4-20.123-30.051l3.4-1.156s19.992,1.043,25.4,14.788S764.614,518.677,764.614,518.677Z" transform="translate(-204.852 31.949)" opacity="0.1"/>
    <circle id="Ellipse_13" data-name="Ellipse 13" cx="1.093" cy="1.093" r="1.093" transform="translate(521.915 532.245)" fill="#4b4b5b"/>
    <circle id="Ellipse_14" data-name="Ellipse 14" cx="1.093" cy="1.093" r="1.093" transform="translate(515.561 534.05)" fill="#4b4b5b"/>
    <g id="Group_14" data-name="Group 14" transform="translate(410.778 281.286)" opacity="0.1">
      <path id="Path_303" data-name="Path 303" d="M637.375,129.258a48.477,48.477,0,0,0-3.586-20.08c-8.122,1.212-17.018-5.054-24.416-1.306-5.473,2.774-7.191,9.727-7.5,15.856-.075,1.618-.087,3.236-.056,4.854,0-.575,0-1.156.056-1.731.287-6.129,2.005-13.082,7.5-15.856,7.4-3.749,16.281,2.5,24.416,1.306a48.343,48.343,0,0,1,3.586,16.956Z" transform="translate(-562.456 -106.442)"/>
      <path id="Path_304" data-name="Path 304" d="M555.374,128.868a20.823,20.823,0,0,0-.081-4.086c-.662-5.5-3.667-10.752-4.211-16.112-.7,6.466,3.417,12.676,4.211,19.236A3.9,3.9,0,0,1,555.374,128.868Z" transform="translate(-543.393 -107.196)"/>
      <path id="Path_305" data-name="Path 305" d="M583.722,219.7c-.387,4.636-1.481,9.59-5,12.664s-10,2.905-11.952-1.306c-.625-1.25-.719-2.705-1.325-3.955-1.387-2.861-4.8-3.973-7.778-5.092-8.465-3.167-16.631-9.371-18.449-18.249a19.177,19.177,0,0,1-.331-2.437,19.692,19.692,0,0,0,.331,5.56c1.818,8.853,10,15.082,18.449,18.249,2.98,1.118,6.391,2.23,7.778,5.092.625,1.25.731,2.693,1.325,3.955,1.968,4.211,8.459,4.373,11.952,1.306s4.579-8.028,5-12.664a71.384,71.384,0,0,0,.194-7.335C583.916,216.911,583.835,218.311,583.722,219.7Z" transform="translate(-538.823 -141.966)"/>
      <path id="Path_306" data-name="Path 306" d="M687.93,138.285v2.705c.35-11.62,4.611-23.3,4.192-34.68C691.8,116.831,688.167,127.589,687.93,138.285Z" transform="translate(-594.774 -106.31)"/>
      <path id="Path_307" data-name="Path 307" d="M660.584,215.7a8.055,8.055,0,0,0,.144-2.255,12.5,12.5,0,0,0-1.668-4.567c-3.611-6.872-7.728-13.907-8.216-21.535,0,.325-.044.625-.05.975-.25,8.459,4.317,16.2,8.266,23.685a15,15,0,0,1,1.524,3.7Z" transform="translate(-580.836 -136.716)"/>
      <path id="Path_308" data-name="Path 308" d="M679.08,217.51a50.837,50.837,0,0,1-6.3,21.567c-3.3,6-9.128,11.983-15.881,10.827a2.655,2.655,0,0,1-1.612-.731,1.563,1.563,0,0,1-.294-.487c-.075.487-.137.981-.175,1.481a2.88,2.88,0,0,0,.469,2.13,2.655,2.655,0,0,0,1.612.731c6.754,1.156,12.583-4.823,15.881-10.827a50.838,50.838,0,0,0,6.3-21.567c.075-1.462.081-2.918.037-4.373C679.105,216.679,679.105,217.091,679.08,217.51Z" transform="translate(-582.332 -147.568)"/>
    </g>
    <path id="Path_309" data-name="Path 309" d="M695.31,514.467s15.813,6.635,26.24-8.047" transform="translate(-186.765 24.838)" fill="none" stroke="#000" stroke-miterlimit="10" stroke-width="1" opacity="0.1"/>
    <path id="Path_310" data-name="Path 310" d="M700.29,535.569s12.914-8.4,29.363-.275" transform="translate(-188.634 15.331)" fill="none" stroke="#000" stroke-miterlimit="10" stroke-width="1" opacity="0.1"/>
    <path id="Path_311" data-name="Path 311" d="M561.93,530.959s5.423-12.233,19.9-2.905" transform="translate(-136.715 18.036)" fill="none" stroke="#000" stroke-miterlimit="10" stroke-width="1" opacity="0.1"/>
    <path id="Path_312" data-name="Path 312" d="M533.79,237.908l11.058-10s42.877-2.811,44.651,11.764c0,0,15.2-17.281,47.169-13.432l13.526,10.771-37.385,16.406-36.33,12.6-26.758-11.977Z" transform="translate(-126.156 130.182)" opacity="0.1"/>
    <path id="Path_313" data-name="Path 313" d="M533.79,238.908l11.058-10s42.877-2.811,44.651,11.764c0,0,15.2-17.281,47.169-13.432l13.526,10.771-37.385,16.406-36.33,12.6-26.758-11.977Z" transform="translate(-126.156 129.806)" fill="#d5d6db"/>
    <path id="Path_314" data-name="Path 314" d="M437.38,204.83l4.892,58.521,51.855,2.605-2.249-58.271-.044-.981Z" transform="translate(-34.638 165.134)" opacity="0.1"/>
    <path id="Path_315" data-name="Path 315" d="M437.38,202.83l4.892,58.521,51.855,2.605-2.249-58.271-.044-.981Z" transform="translate(-34.638 165.885)" fill="#ef2d56"/>
    <path id="Path_316" data-name="Path 316" d="M603.2,202.83l-53.492,8.022v58.783l52.273-7.553Z" transform="translate(-76.789 165.885)" opacity="0.1"/>
    <path id="Path_317" data-name="Path 317" d="M603.2,200.83l-53.492,8.022v58.783l52.273-7.553Z" transform="translate(-76.789 166.635)" fill="#ef2d56"/>
    <path id="Path_318" data-name="Path 318" d="M597.785,223.79,568.89,227l.631,9.846,28.245-3.086Z" transform="translate(-83.986 158.02)" fill="#fff" opacity="0.3"/>
    <path id="Path_319" data-name="Path 319" d="M537.536,358.777l2.943,7.916s4.373,3.749,9.159,1.874,8.959-2.805,11.039-4.629,5-10.99,5-10.99,2.918-10,5.829-12.5,10.621-36.929,0-33.562S552.761,341.5,552.761,341.5a7.408,7.408,0,0,1-4.58,2.5c-2.705.212-8.122-.419-9.165,1.874S534.412,354.2,537.536,358.777Z" transform="translate(-127.09 99.797)" fill="#f0b67f"/>
    <path id="Path_320" data-name="Path 320" d="M628.868,256.731a17.993,17.993,0,0,1-15.688-3.911l2.255,58.265a15.9,15.9,0,0,0,13.432,4.436Z" transform="translate(-155.947 119.999)" opacity="0.1"/>
    <path id="Path_321" data-name="Path 321" d="M628.868,254.731a17.993,17.993,0,0,1-15.688-3.911l2.255,58.265a15.9,15.9,0,0,0,13.432,4.436Z" transform="translate(-155.947 120.75)" fill="#ef2d56"/>
    <path id="Path_322" data-name="Path 322" d="M628.868,254.731a17.993,17.993,0,0,1-15.688-3.911l2.255,58.265a15.9,15.9,0,0,0,13.432,4.436Z" transform="translate(-155.947 120.75)" opacity="0.1"/>
    <path id="Path_323" data-name="Path 323" d="M640.29,243.082s21.76-6.654,27.433-5.717" transform="translate(-166.119 125.832)" opacity="0.1"/>
    <path id="Path_324" data-name="Path 324" d="M586.545,239.618s-21.092-5-24.615-3.58" transform="translate(-136.715 126.392)" opacity="0.1"/>
    <path id="Path_325" data-name="Path 325" d="M662.25,245.808s14.551-5.335,19.811-2.8" transform="translate(-174.36 123.937)" opacity="0.1"/>
    <path id="Path_326" data-name="Path 326" d="M650.52,455.556a47.833,47.833,0,0,1,7.172-4.455,117.01,117.01,0,0,0,10.621-6.491" transform="translate(-169.958 48.032)" opacity="0.1"/>
    <path id="Path_327" data-name="Path 327" d="M552.136,360.08s-9.128,7.466-11.87,8.122-4.436,6.479-4.436,6.479" transform="translate(-126.921 79.751)" opacity="0.1"/>
    <path id="Path_328" data-name="Path 328" d="M691.667,357.008l-2.911,7.934s-4.373,3.749-9.165,1.874-8.953-2.805-11.039-4.629-5-10.989-5-10.989-2.911-10-5.829-12.5-10.621-36.929,0-33.562,18.743,34.605,18.743,34.605a7.407,7.407,0,0,0,4.579,2.5c2.705.212,8.122-.419,9.165,1.874S694.791,352.447,691.667,357.008Z" transform="translate(-170.621 100.453)" fill="#f0b67f"/>
    <path id="Path_329" data-name="Path 329" d="M707.15,364.94s5.966,3.836,5.941,8.422" transform="translate(-191.208 77.927)" opacity="0.1"/>
    <circle id="Ellipse_15" data-name="Ellipse 15" cx="27.908" cy="27.908" r="27.908" transform="translate(437.41 275.857)" fill="#f0b67f"/>
    <path id="Path_330" data-name="Path 330" d="M589.77,112.628c3.386-.531,6.354-2.5,9.59-3.63,7.241-2.543,15.25-.8,22.579,1.493,2.811.881,5.667,1.874,8.615,1.874s6.079-1.206,7.585-3.749a8.475,8.475,0,0,0-.05-7.828,22.049,22.049,0,0,0-5.1-6.291c-6.5-6.135-14.557-11.87-23.472-11.246A32.3,32.3,0,0,0,599.2,86.207,113.7,113.7,0,0,0,587.1,92.3c-3.005,1.743-8.572,4.073-10.3,7.26C572.858,106.743,583.647,113.59,589.77,112.628Z" transform="translate(-141.977 183.646)" fill="#3e373a"/>
    <path id="Path_331" data-name="Path 331" d="M638.137,116.708c-1.506,2.543-4.636,3.749-7.585,3.749s-5.8-.956-8.622-1.837c-7.328-2.293-15.332-4.042-22.579-1.493-3.23,1.131-6.2,3.124-9.59,3.624-4.936.775-12.883-3.524-13.745-8.99-.968,6.316,8.247,11.727,13.745,10.865,3.386-.531,6.36-2.5,9.59-3.624,7.247-2.549,15.25-.8,22.579,1.493,2.818.881,5.667,1.874,8.622,1.837s6.079-1.2,7.585-3.749a7.315,7.315,0,0,0,.875-4.567,6.734,6.734,0,0,1-.875,2.693Z" transform="translate(-141.975 172.931)" opacity="0.1"/>
    <path id="Path_332" data-name="Path 332" d="M1031.877,661.63s3.7,4.842-1.712,12.158-9.877,13.488-8.078,18.049c0,0,8.172-13.582,14.819-13.776S1039.18,669.8,1031.877,661.63Z" transform="translate(-309.234 -33.404)" fill="#2a9d8f"/>
    <path id="Path_333" data-name="Path 333" d="M1032,661.63a6,6,0,0,1,.756,1.518c6.485,7.622,9.946,14.738,3.7,14.913-5.81.169-12.776,10.558-14.444,13.176a6.129,6.129,0,0,0,.194.625s8.172-13.582,14.819-13.776S1039.307,669.8,1032,661.63Z" transform="translate(-309.361 -33.404)" opacity="0.1"/>
    <path id="Path_334" data-name="Path 334" d="M1048.486,670.855c0,1.706-.194,3.086-.425,3.086s-.431-1.381-.431-3.086.237-.9.475-.9S1048.486,669.15,1048.486,670.855Z" transform="translate(-318.971 -36.456)" fill="#ffd037"/>
    <path id="Path_335" data-name="Path 335" d="M1051.037,674.048c-1.493.812-2.8,1.306-2.911,1.1s1.006-1.037,2.5-1.874.906-.225,1.018,0S1052.536,673.23,1051.037,674.048Z" transform="translate(-319.154 -37.613)" fill="#ffd037"/>
    <path id="Path_336" data-name="Path 336" d="M1001.669,661.63s-3.7,4.842,1.712,12.158,9.877,13.488,8.072,18.049c0,0-8.166-13.582-14.819-13.776S994.385,669.8,1001.669,661.63Z" transform="translate(-298.606 -33.404)" fill="#2a9d8f"/>
    <path id="Path_337" data-name="Path 337" d="M1001.669,661.63a6,6,0,0,0-.756,1.518c-6.485,7.622-9.946,14.738-3.7,14.913,5.8.169,12.776,10.558,14.444,13.176a4.846,4.846,0,0,1-.2.625s-8.166-13.582-14.819-13.776S994.385,669.8,1001.669,661.63Z" transform="translate(-298.606 -33.404)" opacity="0.1"/>
    <path id="Path_338" data-name="Path 338" d="M995.64,670.855c0,1.706.187,3.086.425,3.086s.431-1.381.431-3.086-.244-.9-.475-.9S995.64,669.15,995.64,670.855Z" transform="translate(-299.462 -36.456)" fill="#ffd037"/>
    <path id="Path_339" data-name="Path 339" d="M991.314,674.048c1.493.812,2.8,1.306,2.911,1.1s-1.006-1.037-2.5-1.874-.906-.225-1.018,0S989.814,673.23,991.314,674.048Z" transform="translate(-297.497 -37.613)" fill="#ffd037"/>
    <ellipse id="Ellipse_16" data-name="Ellipse 16" cx="38.735" cy="5.941" rx="38.735" ry="5.941" transform="translate(674.118 683.611)" fill="#6c63ff" opacity="0.1"/>
    <path id="Path_340" data-name="Path 340" d="M1030.284,698.172l-.187,1.512-.263,2.137-.106.893-.263,2.137-.112.893-.256,2.13-2.968,24.3c-.262,2.168-3.8,3.861-8.084,3.861h-15.4c-4.28,0-7.816-1.693-8.084-3.861l-2.968-24.3-.262-2.13-.106-.893-.262-2.137-.113-.893-.256-2.137-.187-1.512c-.144-1.25,1.768-2.262,4.192-2.262h31.5C1028.516,695.91,1030.434,696.941,1030.284,698.172Z" transform="translate(-297.495 -46.267)" fill="#264653"/>
    <path id="Path_341" data-name="Path 341" d="M941.633,658.53l-.256,2.137H902.392l-.262-2.137Z" transform="translate(-209.032 -5.114)" fill="#9d9cb5"/>
    <path id="Path_342" data-name="Path 342" d="M941.486,663.38l-.256,2.137H902.982l-.262-2.137Z" transform="translate(-209.253 -6.934)" fill="#9d9cb5"/>
    <path id="Path_343" data-name="Path 343" d="M941.343,668.23l-.262,2.137h-37.5l-.256-2.137Z" transform="translate(-209.479 -8.753)" fill="#9d9cb5"/>
  </g>
</svg>
