<svg xmlns="http://www.w3.org/2000/svg" xmlns:xlink="http://www.w3.org/1999/xlink" width="424.19" height="316.152" viewBox="0 0 424.19 316.152">
  <defs>
    <linearGradient id="linear-gradient" x1="0.5" y1="1" x2="0.5" gradientUnits="objectBoundingBox">
      <stop offset="0" stop-color="gray" stop-opacity="0.251"/>
      <stop offset="0.54" stop-color="gray" stop-opacity="0.122"/>
      <stop offset="1" stop-color="gray" stop-opacity="0.102"/>
    </linearGradient>
  </defs>
  <g id="Group_45" data-name="Group 45" transform="translate(-943 -212.924)">
    <g id="Group_37" data-name="Group 37" transform="translate(0 -122.076)">
      <path id="Path_391" data-name="Path 391" d="M487.693,231.361c-.076.449-.152.9-.236,1.346a165.123,165.123,0,0,1-13.742,43.524q-.324.673-.661,1.346a124.386,124.386,0,0,1-15.484,23.879,49.551,49.551,0,0,1-11.122,10.437c-5.968,3.8-12.945,5.351-19.8,6.617-7.125,1.318-14.342,2.4-21.544,3.6q-3.829.625-7.61,1.31c-6.957,1.258-13.862,2.711-20.6,4.638a107.1,107.1,0,0,0-24.031,9.885q-.913.521-1.806,1.069c-.6.36-1.2.729-1.782,1.105s-1.165.749-1.742,1.129l-.889.6c-.292.192-.581.4-.869.593-.857.585-1.7,1.2-2.547,1.794l-.032.024q-.835.6-1.662,1.2c-3.12,2.311-6.172,4.73-9.212,7.157l-1.918,1.534q-1.486,1.178-2.972,2.351c-.581.461-1.169.917-1.754,1.374-.425.332-.845.665-1.278.993-2.167,1.67-4.362,3.3-6.6,4.866-.533.372-1.073.745-1.6,1.109a84.465,84.465,0,0,1-14.234,7.842l-.064.028a56.479,56.479,0,0,1-7.562,2.607,45.269,45.269,0,0,1-4.454.965,39.363,39.363,0,0,1-12.076.208c-7.886-1.117-15.276-4.806-23.142-6.04-16.229-2.519-31.989,5.607-47.261,11.987q-5.607,2.347-11.339,4.406-3.8,1.37-7.63,2.607A240.222,240.222,0,0,1,140.558,399.7a110.627,110.627,0,0,1-20.326.549,68.662,68.662,0,0,1-7.61-.989c-8.559-1.6-16.549-5-22.986-11.214-5.347-5.083-9.12-11.727-12-18.66q-1.734-4.177-3.056-8.547a95.323,95.323,0,0,1-3.112-13.95c-.156-1.065-.3-2.135-.4-3.2q-.312-2.752-.465-5.527a95.723,95.723,0,0,1,2.848-29.238c2.728-10.57,7.277-20.691,9.28-31.36.084-.449.16-.9.236-1.346q.4-2.4.609-4.894c1.009-13.049-2.9-25.821-5.98-38.614-.108-.449-.216-.9-.32-1.346q-.5-2.127-.949-4.257c-2.856-13.529-3.637-28.008-1.1-41.509.08-.449.172-.9.264-1.346a67.143,67.143,0,0,1,9.356-23.4c4.746-7.273,10.978-13.325,17.623-18.644q4.866-3.885,10.065-7.269,3.737-2.427,7.61-4.594a126.834,126.834,0,0,1,68.2-16.021q1.87.1,3.733.256,1.955.168,3.9.4c15.151,1.75,29.894,6.088,44.549,10.834q7.365,2.4,14.707,4.806,3.268,1.065,6.532,2.1c10.674,3.368,21.524,6.408,32.474,8.7q3.809.8,7.61,1.462a179.862,179.862,0,0,0,26.67,2.748q5.207.128,10.413-.108,2.631-.12,5.267-.352c18.147-1.554,35.646-6.765,53.217-11.659,2.539-.709,5.083-1.414,7.61-2.095,3.34-.9,6.685-1.766,10.041-2.567,20.9-5.018,39.523-2.135,58.952,8.215,4.406,2.351,8.811,5.187,11.535,9.576s3.384,9.825,3.889,15.055c.713,7.442,1.2,14.987,1.358,22.565,0,.449,0,.9.028,1.346A240.081,240.081,0,0,1,487.693,231.361Z" transform="translate(872.548 244.406)" fill="#ef2d56" opacity="0.1"/>
      <path id="Path_392" data-name="Path 392" d="M356.2,276.469h-1.366v1.346h1.546Zm-15.48,0a.087.087,0,0,0,0,.032l-.12,1.113v.2H352.46v-.08l.845-1.266Zm-31.7,0V232.944h13.618c-.144-.12-.292-.24-.445-.352l-.2-.152c-.084-.068-.168-.132-.256-.192s-.3-.212-.453-.316-.252-.172-.4-.256l-.092-.06H309.024v-2.383l-.316.152-.336.188h-.024l-.072.044-.208.136c-.072.044-.144.088-.212.136-.208.14-.4.292-.621.449l-.2.16c-.136.1-.264.212-.4.32-.533.437-1.057.893-1.6,1.314-.136.108-.272.212-.4.312a10.343,10.343,0,0,1-.905.593,4.3,4.3,0,0,1-.4.22l-.224.1-.2.088h0a8.509,8.509,0,0,1-1.49.473v42.547H280.98a.616.616,0,0,0,.04.14c.112.4.224.8.332,1.2H301.41v46.656h.312l.356.024.649.048,1.049.1.473.056.521.064h.076c.3.04.6.088.913.136l.2.032.441.072.633.112h0l1.518-.08h0l.208.044a1.214,1.214,0,0,1,.256.052V277.814h31.565v-.2l.12-1.113a.088.088,0,0,1,0-.032Zm47.181,0h-1.366v1.346h1.546Zm-16.333,0-.136,1.346h13.189l.9-1.346Zm-30.84,0V232.944h13.618c-.144-.12-.292-.24-.445-.352l-.2-.152c-.084-.068-.168-.132-.256-.192s-.3-.212-.453-.316-.252-.172-.4-.256l-.092-.06H309.024v-2.383l-.316.152-.336.188h-.024l-.072.044-.208.136c-.072.044-.144.088-.212.136-.208.14-.4.292-.621.449l-.2.16c-.136.1-.264.212-.4.32-.533.437-1.057.893-1.6,1.314-.136.108-.272.212-.4.312a10.343,10.343,0,0,1-.905.593,4.3,4.3,0,0,1-.4.22l-.224.1-.2.088h0a8.509,8.509,0,0,1-1.49.473v42.547H280.98a.616.616,0,0,0,.04.14c.112.4.228.8.336,1.2H301.41v46.652l.312.02.356.024.649.048,1.049.1.473.056.521.064h.076c.3.04.6.088.913.136l.2.032.441.072.633.112h0l1.518-.08h0l.208.044a1.215,1.215,0,0,1,.256.052V277.814h30.724l.144-1.346Zm103.2-90.637h85.8c0-.449,0-.9-.028-1.346H412.229V131.642c-2.547.681-5.091,1.386-7.61,2.095v50.749H311.3l-.236-.256.356-.4h0l34.709-38.093q-5.207.24-10.413.108l-26.69,29.278V143.109q-3.821-.661-7.61-1.462v32l-39.022-42.8c-4.9-1.6-9.8-3.232-14.707-4.806l53.04,58.191-.236.256H203.136V115.2q-1.947-.22-3.9-.4-1.862-.164-3.733-.256v69.946h-68.2V130.577q-3.881,2.163-7.61,4.594v49.316H82.6c-.092.445-.184.9-.264,1.346h37.324V231.6H84.407c.1.449.212.9.32,1.346H119.68v43.524H90.086c-.076.449-.152.9-.236,1.346h29.83v121.7a68.66,68.66,0,0,0,7.61.989V277.814h68.216v111.9q3.837-1.246,7.63-2.607V277.814H301.4V375.58a56.476,56.476,0,0,0,7.562-2.607l.064-.028v-95.13h95.571v45.847q3.8-.685,7.61-1.31V277.814H480.16q.336-.673.661-1.346H412.229V232.944h82.358c.084-.449.16-.9.236-1.346H412.229Zm-284.919,0h68.2V231.6h-68.2Zm0,90.637V232.944h68.2v43.524Zm75.83-90.637H301.4V231.6H203.136Zm0,90.637V232.944H301.4v43.524Zm201.459,0H309.024V232.944h95.571Zm0-44.858H309.024V187.057l1.342-1.226h94.229Zm-63.87,44.858a.087.087,0,0,0,0,.032l-.12,1.113v.2h11.855v-.08l.845-1.266Zm15.48,0h-1.366v1.346h1.546Zm-47.181,0V232.944h13.618c-.144-.12-.292-.24-.445-.352l-.2-.152c-.084-.068-.168-.132-.256-.192s-.3-.212-.453-.316-.252-.172-.4-.256l-.092-.06H309.024v-2.383l-.316.152-.336.188h-.024l-.072.044-.208.136c-.072.044-.144.088-.212.136-.208.14-.4.292-.621.449l-.2.16c-.136.1-.264.212-.4.32-.533.437-1.057.893-1.6,1.314-.136.108-.272.212-.4.312a10.343,10.343,0,0,1-.905.593,4.3,4.3,0,0,1-.4.22l-.224.1-.2.088h0a8.509,8.509,0,0,1-1.49.473v42.547H280.98a.616.616,0,0,0,.04.14c.112.4.224.8.332,1.2H301.41v46.656h.312l.356.024.649.048,1.049.1.473.056.521.064h.076c.3.04.6.088.913.136l.2.032.441.072.633.112h0l1.518-.08h0l.208.044a1.214,1.214,0,0,1,.256.052V277.814h31.565v-.2l.12-1.113a.088.088,0,0,1,0-.032Z" transform="translate(865.421 244.168)" fill="#ef2d56" opacity="0.1"/>
      <path id="Path_393" data-name="Path 393" d="M272.7,209.58h.609a1.458,1.458,0,0,1-.725-1.174h0c0-.929,1.137-1.686,2.527-1.686H292.8c1.39,0,2.527.757,2.527,1.686h0c0,.925-1.137,1.686-2.527,1.686h-.589a1.462,1.462,0,0,1,.721,1.174c0,.8-.825,1.458-1.93,1.638h5.091c1.386,0,2.523.757,2.523,1.686s-1.137,1.682-2.523,1.682h-17.7c-1.386,0-2.523-.757-2.523-1.682,0-.8.825-1.458,1.93-1.638H272.7c-1.386,0-2.523-.757-2.523-1.686S271.309,209.58,272.7,209.58Z" transform="translate(752.814 188.907)" fill="#ef2d56" opacity="0.1"/>
      <path id="Path_394" data-name="Path 394" d="M751.223,249.65h.593a1.462,1.462,0,0,1-.725-1.178h0c0-.925,1.138-1.682,2.527-1.682H771.3c1.39,0,2.527.757,2.527,1.682h0c0,.929-1.138,1.686-2.527,1.686h-.589a1.466,1.466,0,0,1,.721,1.177c0,.8-.825,1.454-1.931,1.634h5.091c1.386,0,2.523.761,2.523,1.686s-1.137,1.686-2.523,1.686H756.915c-1.386,0-2.523-.757-2.523-1.686,0-.8.825-1.458,1.931-1.634h-5.1c-1.386,0-2.523-.761-2.523-1.686S749.845,249.65,751.223,249.65Z" transform="translate(465.949 164.886)" fill="#ef2d56" opacity="0.1"/>
      <path id="Path_395" data-name="Path 395" d="M204.973,421.114h.593a1.466,1.466,0,0,1-.721-1.178h0c0-.925,1.133-1.686,2.523-1.686h17.683c1.39,0,2.527.761,2.527,1.686h0c0,.929-1.137,1.686-2.527,1.686h-.589a1.466,1.466,0,0,1,.721,1.178c0,.8-.825,1.454-1.93,1.634h5.091c1.39,0,2.523.757,2.523,1.686s-1.133,1.686-2.523,1.686H210.657c-1.386,0-2.523-.761-2.523-1.686,0-.8.829-1.458,1.93-1.638h-5.091c-1.386,0-2.523-.757-2.523-1.682S203.587,421.114,204.973,421.114Z" transform="translate(793.417 62.098)" fill="#ef2d56" opacity="0.1"/>
      <path id="Path_396" data-name="Path 396" d="M676.695,713.44q-1.486,1.178-2.972,2.351c-.581.461-1.169.917-1.754,1.374-.424.332-.845.665-1.278.993-2.167,1.67-4.362,3.3-6.6,4.866-.533.372-1.073.745-1.6,1.109a84.463,84.463,0,0,1-14.234,7.842l-.064.028V713.44Z" transform="translate(526.203 -114.863)" fill="#65617d"/>
      <path id="Path_397" data-name="Path 397" d="M556.858,385.2l.449-13.838c-.268-.208-.541-.4-.8-.593a73.766,73.766,0,0,0-.7-12.34c-1.81-13.838-13.565-14.138-16.882-11.283a8.01,8.01,0,0,1-1.43.985c.3-1.975.673-3.953.941-5.908,1.45-10.542-.8-22.4-8.98-29.214-3.424-2.848-7.61-4.6-11.371-6.981-6.737-4.249-12.059-10.526-18.872-14.663s-16.381-5.687-22.325-.368c-2.3,2.059-3.789,4.914-6.152,6.9-4.406,3.7-11.275,3.945-15.119,8.078h0c-.192.208-.376.421-.553.645-3.2,4.109-2.327,9.937-1.306,15.035,1.23,6.136.721,11.054,5.984,12.816.02.244.036.489.064.729a26,26,0,0,0,11.439,18.712l-.853.3c-2.275.8-4.322,1.578-5.631,2.111-4.806,1.959-14.923,4.51-14.923,4.51s-.24,2.884-.2,7.137c-3.372,3.665-9,10.105-10.654,13.922-2.4,5.567-15.981,21.512-19.6,23.919s-7.538,5.263-7.538,5.263-5.727,3.16-8.439,3.46c-1.878.208-7.69-.905-7.69-.905s-23.21-28.437-21.7-6.617,20.046,22.561,20.046,22.561l18.692-.3s10.1,1.354,14.623-2.4c3.861-3.2,23.871-20.783,30.3-28.757.148.164.3.324.453.481,0,0,2.559-3.308,2.864,0s-1.662,4.806-.6,6.008,4.221,5.415,4.37,7.069-4.217,8.411,3.164,13.537c.116.08.24.156.376.232,1.318,3,5.507,5.936,5.507,5.936l22.609-.3,42.659,3.308s1.27-1.117,2.988-2.944c2.295,2.107,5.479,3.913,9.068,2.8,0,0,5.127-6.164,5.279-10.225,0,0-3.316-8.575-4.806-11.13s1.057-8.122,1.057-8.122,1.806-5.415,2.864-5.415.3-3.6.3-3.6a4.382,4.382,0,0,1-.453-4.061A38.867,38.867,0,0,0,556.858,385.2Z" transform="translate(690.609 140.423)" fill="url(#linear-gradient)"/>
      <path id="Path_398" data-name="Path 398" d="M698.029,465.056l-1.6,1.874h0l-6.472,7.538-8.455.513-13.533.833s-18.248-21.988-14.819-26.775a8.761,8.761,0,0,0,1.2-6.156c-.032-.3-.076-.593-.128-.885a25.589,25.589,0,0,0-2.131-6.568l.449-.2.288-.132,15.957-7.281,3.949-1.8a10.658,10.658,0,0,0,1.081,3.116c.076.152.16.3.248.449,5.443,9.012,22.9,3.312,22.9,3.312Z" transform="translate(523.865 57.446)" fill="#f0b67f"/>
      <path id="Path_399" data-name="Path 399" d="M784.114,459.288c-.12,5.455-1.009,7.81-1.009,7.81l-22.585,3.44-.845-5.864-3.344-23.154,3.14-3.14a8.383,8.383,0,0,0,7.181-1.794c3.288-2.844,14.955-2.543,16.75,11.214A76.172,76.172,0,0,1,784.114,459.288Z" transform="translate(461.375 51.964)" fill="#f0b67f"/>
      <path id="Path_400" data-name="Path 400" d="M793.316,619.762s5.082-6.132,5.235-10.169l-5.087-8.527-4.486-4.806L780.6,612.433S786.135,622.005,793.316,619.762Z" transform="translate(446.825 -44.616)" fill="#dfe5ee"/>
      <path id="Path_401" data-name="Path 401" d="M793.316,619.762s5.082-6.132,5.235-10.169l-5.087-8.527-4.486-4.806L780.6,612.433S786.135,622.005,793.316,619.762Z" transform="translate(446.825 -44.616)" opacity="0.1"/>
      <path id="Path_402" data-name="Path 402" d="M326.552,701.47c-.425.333-.845.665-1.278.993-2.167,1.67-4.362,3.3-6.6,4.866-.533.372-1.073.745-1.6,1.109H189.307l-37.8-1.354-30.4-.256-7.61-.4-37.969-2A95.325,95.325,0,0,1,72.4,690.464c-.156-1.065-.3-2.135-.4-3.2l41.481,2.3,7.61.429,68.2,3.8,7.63.425,98.263,5.487,7.562.425h.064Z" transform="translate(871.62 -99.169)" fill="#d48a9b"/>
      <path id="Path_403" data-name="Path 403" d="M377.1,633.491a107.1,107.1,0,0,0-24.031,9.885c-.6.348-1.2.7-1.806,1.069s-1.2.729-1.782,1.105-1.165.749-1.742,1.129l-.889.6-.869.593c-.857.589-1.7,1.2-2.547,1.794l-.032.024q-.835.6-1.662,1.2c-3.12,2.311-6.172,4.73-9.212,7.157q-.961.769-1.926,1.534l-2.964,2.351c-.581.461-1.169.917-1.754,1.374-.425.332-.845.665-1.278.993l-22.429-1.069h-.064l-7.562-.352-98.307-4.658-7.63-.364-68.2-3.24-7.61-.364-41.1-1.935c-.156-1.065-.3-2.135-.4-3.2q-.312-2.752-.465-5.527L112.8,628.769l7.61-2.7,6.913-2.443,12.6.657,29.113,1.494h0l19.593,1.029,7.63.4,4.874.256h0l1.165.064h0l41.021,2.143h0l.433.028h0l18.3.953h.328l1.83.092h0l6.24.328,7.8.4h0l2.571.136h0l.485.028,3.637.188h0l1.037.052h0l3.472.184h0l1.382.076h.332l3.248.172,5.03.264h.024l1.562.08h.168l.933.052,2.291.12h0l2,.1h.02l2.247.116h.036l1.7.092h0l1.306.068,4.634.244h0l.833.044h.288l.4.024h0l1.358.072h0l.609.032h0l4.726.244h.433l6.977-.06h.048l26.526-.216h2.623l8.539-.068h1.274Z" transform="translate(872.315 -61.024)" fill="#efc6cd"/>
      <path id="Path_404" data-name="Path 404" d="M387.533,642.906,390,656.031l67.078-1.009s5.046,1.458,4.934-2.579c0,0,10.209-9.648,61.92,1.57L504.079,638.42l-54.27,2.916-62.929-1.682Z" transform="translate(682.854 -69.89)" fill="#ef2d56"/>
      <path id="Path_405" data-name="Path 405" d="M391.59,640.7l2.355,14.246s57.674-1.682,66.742-.112l-6.853-13.013S418.961,638.566,391.59,640.7Z" transform="translate(680.031 -70.821)" fill="#fff"/>
      <path id="Path_406" data-name="Path 406" d="M391.59,640.7l2.355,14.246s57.674-1.682,66.742-.112l-6.853-13.013S418.961,638.566,391.59,640.7Z" transform="translate(680.031 -70.821)" opacity="0.1"/>
      <path id="Path_407" data-name="Path 407" d="M393.74,640.642l2.323,13.249s56.941-1.562,65.913-.1l-6.757-12.1S420.767,638.66,393.74,640.642Z" transform="translate(678.742 -70.819)" fill="#fff"/>
      <path id="Path_408" data-name="Path 408" d="M396.35,641.716l2.263,12.392s55.692-1.462,64.483-.1l-6.608-11.323S422.788,639.846,396.35,641.716Z" transform="translate(677.177 -71.484)" opacity="0.1"/>
      <path id="Path_409" data-name="Path 409" d="M397.47,640.6l2.275,12.416s55.692-1.462,64.483-.1L457.6,641.584S423.908,638.745,397.47,640.6Z" transform="translate(676.506 -70.82)" fill="#fff"/>
      <path id="Path_410" data-name="Path 410" d="M287.094,557.41s2.916,3.809-1.342,9.564-7.774,10.61-6.352,14.2c0,0,6.408-10.686,11.655-10.814S292.849,563.834,287.094,557.41Z" transform="translate(747.479 -21.326)" fill="#2a9d8f"/>
      <path id="Path_411" data-name="Path 411" d="M287.34,557.41a4.631,4.631,0,0,1,.6,1.2c5.1,6.008,7.822,11.615,2.916,11.735-4.57.128-10.049,8.3-11.363,10.365q.068.232.156.469s6.408-10.686,11.655-10.814S293.1,563.834,287.34,557.41Z" transform="translate(747.233 -21.326)" opacity="0.1"/>
      <path id="Path_412" data-name="Path 412" d="M311.613,568.253c0,1.338-.152,2.427-.336,2.427s-.336-1.089-.336-2.427.188-.713.372-.713S311.613,566.911,311.613,568.253Z" transform="translate(728.379 -27.31)" fill="#ffd037"/>
      <path id="Path_413" data-name="Path 413" d="M313.822,572.147c-1.178.645-2.2,1.033-2.291.869s.8-.8,1.971-1.458.713-.176.8,0S315,571.506,313.822,572.147Z" transform="translate(728.028 -29.607)" fill="#ffd037"/>
      <path id="Path_414" data-name="Path 414" d="M250.87,557.41s-2.916,3.809,1.346,9.564,7.77,10.61,6.352,14.2c0,0-6.428-10.686-11.659-10.814S245.114,563.834,250.87,557.41Z" transform="translate(768.311 -21.326)" fill="#2a9d8f"/>
      <path id="Path_415" data-name="Path 415" d="M250.87,557.41a4.807,4.807,0,0,0-.6,1.2c-5.1,6.008-7.822,11.615-2.916,11.735,4.57.128,10.053,8.3,11.367,10.365a4.8,4.8,0,0,1-.156.469s-6.428-10.686-11.659-10.814S245.114,563.834,250.87,557.41Z" transform="translate(768.311 -21.326)" opacity="0.1"/>
      <path id="Path_416" data-name="Path 416" d="M247.13,568.253c0,1.338.152,2.427.336,2.427s.336-1.089.336-2.427-.188-.713-.372-.713S247.13,566.911,247.13,568.253Z" transform="translate(766.632 -27.31)" fill="#ffd037"/>
      <path id="Path_417" data-name="Path 417" d="M241.421,572.147c1.178.645,2.207,1.033,2.295.869s-.8-.8-1.971-1.458-.713-.176-.8,0S240.243,571.506,241.421,572.147Z" transform="translate(770.483 -29.607)" fill="#ffd037"/>
      <path id="Path_418" data-name="Path 418" d="M272.063,601.248l-.144,1.2-.2,1.678-.084.7-.2,1.682-.088.7-.208,1.682L268.8,628.007c-.208,1.706-3,3.036-6.36,3.036h-12.1c-3.364,0-6.148-1.33-6.356-3.036l-2.335-19.113-.2-1.682-.084-.7-.208-1.682-.084-.7-.2-1.678-.148-1.2c-.116-.965,1.39-1.778,3.3-1.778h24.776C270.685,599.47,272.2,600.283,272.063,601.248Z" transform="translate(770.484 -46.54)" fill="#65617d"/>
      <path id="Path_419" data-name="Path 419" d="M201.722,551.59l-.2,1.682H170.854l-.2-1.682Z" transform="translate(840.693 4.308)" fill="#9d9cb5"/>
      <path id="Path_420" data-name="Path 420" d="M201.865,557.54l-.2,1.682H171.578l-.208-1.682Z" transform="translate(840.261 0.741)" fill="#9d9cb5"/>
      <path id="Path_421" data-name="Path 421" d="M202.011,563.49l-.2,1.678H172.3l-.2-1.678Z" transform="translate(839.824 -2.826)" fill="#9d9cb5"/>
      <path id="Path_422" data-name="Path 422" d="M400.085,595.939s-7.778-7.478-7.478,2.243S400.085,595.939,400.085,595.939Z" transform="translate(679.426 -42.777)" fill="#ee8e9e"/>
      <path id="Path_423" data-name="Path 423" d="M458.419,513.2a11.347,11.347,0,0,1-2.315,3.569c-6.745,8.122-25.933,25-29.694,28.136-4.486,3.741-14.507,2.4-14.507,2.4l-18.544.3s-18.4-.749-19.894-22.429S395,531.762,395,531.762s5.767,1.105,7.63.9c2.691-.3,8.375-3.436,8.375-3.436s3.889-2.844,7.478-5.235,17.05-18.247,19.445-23.783c1.518-3.513,6.408-9.256,9.785-12.981,1.939-2.143,3.376-3.6,3.376-3.6S459.464,508.564,458.419,513.2Z" transform="translate(690.938 22.91)" fill="#f0b67f"/>
      <path id="Path_424" data-name="Path 424" d="M569.656,513.178a11.347,11.347,0,0,1-2.315,3.569c-6.809-6.933-8.231-20.767-8.391-29.562,1.938-2.143,3.376-3.6,3.376-3.6S570.7,508.54,569.656,513.178Z" transform="translate(579.701 22.934)" opacity="0.1"/>
      <path id="Path_425" data-name="Path 425" d="M696.423,480.527h0l-6.468,7.538-8.455.513-13.533.833s-18.248-21.988-14.819-26.775a8.761,8.761,0,0,0,1.2-6.156c-.032-.3-.076-.593-.128-.885a25.589,25.589,0,0,0-2.131-6.568l.449-.2.288-.132a28.719,28.719,0,0,1,1.466,6.132c.044.284.084.581.124.885.14,1.081.268,2.283.4,3.6,1.041,12.1,8.655,16.657,12.092,18.107a34.885,34.885,0,0,1,3.236,1.566A17.266,17.266,0,0,0,681,480.948c8.483-1.113,15.4-7.277,15.4-7.277l.036,6.068Z" transform="translate(523.865 43.85)" opacity="0.1"/>
      <path id="Path_426" data-name="Path 426" d="M642.014,524.718s-55.636-.152-62.969-5.235-2.988-11.815-3.14-13.461-3.288-5.832-4.334-7.033.9-2.691.6-5.98-2.84,0-2.84,0c-10.474-10.622-8.231-37.54-8.231-37.54s10.013-2.539,14.819-4.49c1.3-.529,3.328-1.282,5.607-2.095l.845-.3c5.876-2.1,12.861-4.478,12.861-4.478s1.342-.949,2.691,1.89a24.96,24.96,0,0,1,1.734,6.769c.044.284.084.581.124.885.14,1.081.268,2.283.4,3.6,1.041,12.1,8.655,16.657,12.092,18.107a34.856,34.856,0,0,1,3.236,1.566,17.266,17.266,0,0,0,10.854,1.963c8.483-1.113,15.4-7.277,15.4-7.277l.036,6.068.1,18.231Z" transform="translate(578.534 46.692)" fill="#dfe5ee"/>
      <path id="Path_427" data-name="Path 427" d="M666.755,583.524l-.9,5.683s-22.137,5.531-30.808,7.177-27.371-.449-28.717,3.14,5.683,8.527,5.683,8.527l22.429-.3,42.326,3.292s16.153-14.21,10.918-24.083S666.755,583.524,666.755,583.524Z" transform="translate(551.398 -35.745)" fill="#f0b67f"/>
      <path id="Path_428" data-name="Path 428" d="M630.876,474.58S620.7,482.955,622.649,487,630.876,474.58,630.876,474.58Z" transform="translate(541.663 28.33)" opacity="0.1"/>
      <path id="Path_429" data-name="Path 429" d="M597.6,512.29s-10.321,17.8-9.721,19.145,3.44,6.132,3.288,2.543S597.6,512.29,597.6,512.29Z" transform="translate(562.372 5.723)" opacity="0.1"/>
      <path id="Path_430" data-name="Path 430" d="M614.76,520.14s-2.4,11.066-4.786,15.7S614.76,520.14,614.76,520.14Z" transform="translate(549.404 1.017)" opacity="0.1"/>
      <path id="Path_431" data-name="Path 431" d="M650.241,429.6a25.873,25.873,0,0,1-19.665,13.305h-.048a25.829,25.829,0,0,1-18.207-4.766c6.008-2.171,13.706-4.782,13.706-4.782s1.342-.949,2.692,1.89l20.194-9.212a10.708,10.708,0,0,0,1.33,3.565Z" transform="translate(547.707 57.428)" opacity="0.1"/>
      <path id="Path_432" data-name="Path 432" d="M637.427,363.057a25.756,25.756,0,0,1-3.4,12.841,26.06,26.06,0,0,1-3.857,5.135,25.765,25.765,0,0,1-15.684,7.754h-.052a25.266,25.266,0,0,1-2.876.164,25.873,25.873,0,0,1-25.709-22.958,25.123,25.123,0,0,1-.164-2.919,25.873,25.873,0,1,1,51.747,0Z" transform="translate(563.677 110.687)" fill="#f0b67f"/>
      <path id="Path_433" data-name="Path 433" d="M754.048,505.095l2.4-3.6s13.161-15.7,26.034-5.683l-.449,13.762a36.484,36.484,0,0,1-1.5,6.408,4.378,4.378,0,0,0,.449,4.041s.749,3.6-.3,3.6-2.844,5.383-2.844,5.383-2.543,5.535-1.045,8.078,4.786,11.066,4.786,11.066-5.235-3.14-6.733-8.375c0,0-12.712-9.873-22.585-3.6Z" transform="translate(463.809 17.608)" opacity="0.1"/>
      <path id="Path_434" data-name="Path 434" d="M789.119,491.271c-.12,5.455-1.009,7.81-1.009,7.81l-22.585,3.44-.845-5.864C767.636,493.574,778.386,483.77,789.119,491.271Z" transform="translate(456.369 19.981)" opacity="0.1"/>
      <path id="Path_435" data-name="Path 435" d="M754.048,503.095l2.4-3.6s13.161-15.7,26.034-5.683l-.449,13.762a36.486,36.486,0,0,1-1.5,6.408,4.378,4.378,0,0,0,.449,4.041s.749,3.6-.3,3.6-2.844,5.383-2.844,5.383-2.543,5.535-1.045,8.078,4.786,11.066,4.786,11.066-5.235-3.14-6.733-8.375c0,0-12.712-9.873-22.585-3.6Z" transform="translate(463.809 18.807)" fill="#dfe5ee"/>
      <path id="Path_436" data-name="Path 436" d="M778.784,496.61S757.1,509.923,758.145,521.6C758.145,521.6,770.261,500.2,778.784,496.61Z" transform="translate(460.309 15.123)" opacity="0.1"/>
      <path id="Path_437" data-name="Path 437" d="M656.541,413.674l.1,18.231c-4.1.184-7.966-.348-11.022-3a13.227,13.227,0,0,1-4.005-7.169,25.4,25.4,0,0,1-.521-6.781.373.373,0,0,1,0-.068c.252-5.034,1.41-10.069.8-15.071s-3.641-10.281-8.591-11.335a5.187,5.187,0,0,1-2.772-1.005,4.02,4.02,0,0,1-.649-3.156l.144-1.87c.036-.481.052-.957.052-1.434a18.356,18.356,0,0,0-14.819-18l-.16-.028a10.121,10.121,0,0,0-4.237-.236c-2.651.613-4.366,3.184-6.809,4.406-4.686,2.339-12.5-.22-17.406-1.025-.32-.052-.625-.112-.917-.18a25.092,25.092,0,0,1-.164-2.92,25.873,25.873,0,1,1,48.342,12.841c.076.152.16.3.248.449,5.443,9.012,22.9,3.312,22.9,3.312l1.049,32.157Z" transform="translate(563.743 110.707)" opacity="0.1"/>
      <path id="Path_438" data-name="Path 438" d="M594.984,338.979c2.427-1.226,4.141-3.8,6.809-4.406a10.217,10.217,0,0,1,4.242.232l.16.032a18.372,18.372,0,0,1,14.751,19.437l-.144,1.87a3.961,3.961,0,0,0,.653,3.152,5.062,5.062,0,0,0,2.768,1c4.95,1.057,7.982,6.308,8.591,11.339s-.569,10.081-.8,15.135.7,10.634,4.518,13.954c6.008,5.207,15.14,2.243,23.09,1.766-3.517,0-6.152-3.629-6.344-7.137s1.37-6.849,2.864-10.013,2.992-6.568,2.659-10.069c-.457-4.806-4.245-8.655-5.7-13.281-1.69-5.383-.06-11.162.7-16.758,1.438-10.478-.8-22.273-8.911-29.045-3.4-2.832-7.55-4.574-11.283-6.945-6.689-4.241-11.963-10.461-18.724-14.587s-16.253-5.655-22.152-.368c-2.283,2.047-3.757,4.886-6.1,6.861-4.586,3.865-11.875,3.937-15.552,8.679-3.164,4.081-2.307,9.877-1.294,14.943,1.35,6.757.589,12.015,7.81,13.217C582.483,338.763,590.293,341.322,594.984,338.979Z" transform="translate(573.758 138.437)" fill="#264653"/>
      <path id="Path_439" data-name="Path 439" d="M654.406,426.566c-5.787.709-11.523,1.073-15.736-2.579-3.821-3.32-4.762-8.9-4.518-13.954s1.414-10.113.8-15.139-3.641-10.277-8.591-11.335a5.138,5.138,0,0,1-2.768-1,3.993,3.993,0,0,1-.653-3.156l.144-1.87A18.368,18.368,0,0,0,608.335,358.1l-.16-.032a10.216,10.216,0,0,0-4.242-.232c-2.651.613-4.366,3.2-6.809,4.406-4.69,2.343-12.5-.216-17.41-1.021-7.209-1.182-6.456-6.448-7.81-13.217-.757-3.781-1.426-7.97-.4-11.551a6.3,6.3,0,0,0-.553.645c-3.164,4.081-2.307,9.877-1.294,14.943,1.35,6.757.589,12.015,7.81,13.217,4.91.8,12.72,3.364,17.41,1.021,2.427-1.226,4.141-3.8,6.809-4.406a10.217,10.217,0,0,1,4.241.232l.16.032a18.372,18.372,0,0,1,14.751,19.437l-.144,1.87a3.961,3.961,0,0,0,.653,3.152,5.062,5.062,0,0,0,2.768,1c4.95,1.057,7.982,6.308,8.591,11.339s-.565,10.081-.8,15.135.7,10.634,4.518,13.954c6.008,5.207,15.139,2.243,23.09,1.766A6.091,6.091,0,0,1,654.406,426.566Z" transform="translate(573.836 111.136)" opacity="0.1"/>
      <path id="Path_440" data-name="Path 440" d="M371.339,580.8l24.692-9.212a2.351,2.351,0,0,1,3.024,1.378h0a2.351,2.351,0,0,1-1.378,3.024L372.985,585.2l-5.295-.529Z" transform="translate(694.358 -29.735)" fill="#5c5c8e"/>
      <path id="Path_441" data-name="Path 441" d="M398.285,572.765h0a2.351,2.351,0,0,1-1.382,3.024L372.2,585.032l-3.973-.4-.573.609,5.295.529,24.692-9.212a2.351,2.351,0,0,0,1.378-3.024h0a2.351,2.351,0,0,0-.961-1.174,2.729,2.729,0,0,1,.232.4Z" transform="translate(694.382 -30.288)" fill="#fff" opacity="0.1"/>
      <path id="Path_442" data-name="Path 442" d="M300.909,539.52l1.642,4.4-4.342-.437-.949-.1,1.3-1.378Z" transform="translate(764.792 11.544)" fill="#efc8c4"/>
      <path id="Path_443" data-name="Path 443" d="M369.006,601a1.047,1.047,0,0,1,.256.276.4.4,0,0,1,0,.428.852.852,0,0,1-.236.172.8.8,0,0,0-.352.593l-.953-.092Z" transform="translate(694.34 -47.457)" fill="#727a9c"/>
      <path id="Path_444" data-name="Path 444" d="M569.687,643.52s21.388-4.49,57.274,1.2L612.9,634.4l-25.577-5.235-18.1,4.806Z" transform="translate(573.538 -64.345)" fill="#fff"/>
      <path id="Path_445" data-name="Path 445" d="M569.687,643.52s21.388-4.49,57.274,1.2L612.9,634.4l-25.577-5.235-18.1,4.806Z" transform="translate(573.538 -64.345)" opacity="0.1"/>
      <path id="Path_446" data-name="Path 446" d="M553.895,650.217s10.77-29.133,66.085.092l-19.854-12.776s-47.561-13.141-53.056,2Z" transform="translate(586.823 -66.187)" fill="#fff"/>
      <path id="Path_447" data-name="Path 447" d="M553.853,647.03s10.77-31.148,66.085.561l-19.854-13.858s-47.577-15.716-53.084.733Z" transform="translate(586.865 -63.02)" opacity="0.1"/>
      <path id="Path_448" data-name="Path 448" d="M553.895,646.864s10.77-31.609,66.085.1l-19.854-13.858s-47.561-15.268-53.056,1.2Z" transform="translate(586.823 -62.842)" fill="#fff"/>
      <path id="Path_449" data-name="Path 449" d="M553.871,644.949s10.77-35.129,66.085.541L600.086,629.9s-47.561-16.021-53.056,2.467Z" transform="translate(586.847 -60.919)" opacity="0.1"/>
      <path id="Path_450" data-name="Path 450" d="M553.871,644.258s10.77-35.558,66.085.112l-19.87-15.592s-47.561-16.021-53.056,2.467Z" transform="translate(586.847 -60.248)" fill="#fff"/>
      <path id="Path_451" data-name="Path 451" d="M969,668.71s-13.277,14.222-1.326,21.131a3.315,3.315,0,0,0,3.793.9s-.753-.669.757-1.958a8.96,8.96,0,0,0,1.422-1.562,4.405,4.405,0,0,0,.825-2.667h0s1.738-5.643-3.785-12.969c0,0-.5-2.451-.925-2.72l-1.009,3.416a5.883,5.883,0,0,1,3.488,2.575s-3.34-2.623-3.665-2.075c-.064.112-.453,1.838-.453,1.838s4.406,1.138,5.783,4.165c0,0-3.561-3.657-5.936-3.512l-.433,2.635s4.714.977,6.408,4.366c0,0-3.853-3.7-6.472-3.781l-.076,2.647s4.578,1.041,5.976,3.869c0,0-4.882-3.817-5.952-3.26a13.082,13.082,0,0,0,.4,3.076s3.268.8,3.933,2.539c0,0-3.533-2.207-3.837-1.87,0,0,.949,3.148,2.271,4.49a9.964,9.964,0,0,1-2.756-4.318,5.5,5.5,0,0,0-.665,3.072s-1.31-1.45.445-3.837a12.655,12.655,0,0,1-.481-2.876,11.962,11.962,0,0,0-2.591,4.005s-.4-2.371,2.587-4.69v-2.667s-2.876,2.647-3.468,4.286c0,0-.04-2.483,3.529-4.954l.4-2.591a20.269,20.269,0,0,0-3.7,3.773s.457-2.315,3.845-4.51l.469-1.7s-1.906,1.562-2.4,2.059-.685.4-.685.4a8.411,8.411,0,0,1,3.284-3.18S969.219,668.8,969,668.71Z" transform="translate(337.668 -88.048)" fill="#2a9d8f" opacity="0.1"/>
      <path id="Path_452" data-name="Path 452" d="M1109.252,90.91s-17.739,8.01-9.376,18.98a3.319,3.319,0,0,0,3.152,2.295s-.436-.909,1.454-1.518a8.774,8.774,0,0,0,1.915-.893,4.406,4.406,0,0,0,1.79-2.143h0s3.781-4.534,1.51-13.421c0,0,.485-2.455.2-2.868l-2.251,2.764a5.879,5.879,0,0,1,2.227,3.721s-2.067-3.709-2.579-3.324c-.1.076-1.125,1.518-1.125,1.518s3.6,2.748,3.729,6.076c0,0-1.875-4.75-4.125-5.535l-1.414,2.267s3.973,2.72,4.237,6.5c0,0-2.131-4.894-4.514-5.984l-1.093,2.4s3.825,2.728,4.005,5.876c0,0-3.032-5.407-4.233-5.3a12.433,12.433,0,0,0-.8,2.992s2.7,2,2.651,3.861c0,0-2.4-3.4-2.8-3.2,0,0-.34,3.268.365,5.018a9.942,9.942,0,0,1-.877-5.047,5.481,5.481,0,0,0-1.8,2.579s-.649-1.846,1.89-3.372a12.563,12.563,0,0,1,.665-2.836,11.958,11.958,0,0,0-3.929,2.679s.541-2.343,4.2-3.328l1.041-2.451s-3.673,1.33-4.854,2.611c0,0,.921-2.307,5.167-3.2l1.366-2.235a20.46,20.46,0,0,0-4.874,2.051s1.318-1.955,5.291-2.675l1.085-1.386s-2.363.7-3.024.969-.8.108-.8.108a8.41,8.41,0,0,1,4.281-1.666S1109.4,91.07,1109.252,90.91Z" transform="translate(256.768 258.334)" fill="#2a9d8f" opacity="0.1"/>
      <path id="Path_453" data-name="Path 453" d="M680.456,103.29s-26.65,7.61-13.694,18.936c0,0,1.15,2.4,4.838,2.4,0,0-.689-.929,2.163-1.494a16.935,16.935,0,0,0,2.876-.849,5.13,5.13,0,0,0,2.651-2.119h0s5.607-4.486,1.927-13.529c0,0,.669-2.467.22-2.892l-3.332,2.732s3.2,1.646,3.472,3.821c0,0-3.232-3.8-4.005-3.428-.156.076-1.666,1.5-1.666,1.5s5.559,2.876,5.812,6.244c0,0-2.964-4.85-6.408-5.7l-2.083,2.251s6.088,2.856,6.589,6.685c0,0-3.356-5-6.993-6.168l-1.6,2.4s5.864,2.86,6.248,6.048c0,0-4.738-5.547-6.556-5.479,0,0-1.254,2.283-1.141,3.008,0,0,4.141,2.115,4.121,3.973,0,0-3.741-3.5-4.358-3.316,0,0-.425,3.3.689,5.083,0,0-1.93-2.567-1.466-5.123,0,0-2.119,1.061-2.651,2.555,0,0-1.033-1.878,2.772-3.352,0,0,.485-2.555.929-2.852,0,0-4.085,1.089-5.876,2.6,0,0,.753-2.355,6.264-3.252l1.514-2.451s-5.527,1.25-7.281,2.511c0,0,1.334-2.307,7.742-3.108l2-2.223a39.409,39.409,0,0,0-7.329,1.942s1.942-1.942,7.938-2.563l1.6-1.37s-3.561.649-4.554.9-1.2.088-1.2.088a15.776,15.776,0,0,1,6.408-1.57S680.688,103.458,680.456,103.29Z" transform="translate(517.199 250.912)" fill="#2a9d8f" opacity="0.1"/>
      <path id="Path_454" data-name="Path 454" d="M894.206,811.29s13.417-14.094,1.534-21.119a3.321,3.321,0,0,0-3.785-.937s.749.677-.773,1.955a9.036,9.036,0,0,0-1.438,1.546,4.378,4.378,0,0,0-.849,2.659h0s-1.8,5.627,3.657,13c0,0,.477,2.455.9,2.732l1.045-3.408a5.881,5.881,0,0,1-3.464-2.607s3.312,2.651,3.641,2.107c.068-.112.473-1.83.473-1.83s-4.406-1.2-5.743-4.221c0,0,3.524,3.693,5.9,3.569l.457-2.631s-4.7-1.021-6.372-4.406c0,0,3.817,3.733,6.436,3.845l.1-2.651s-4.57-1.105-5.956-3.949c0,0,4.846,3.869,5.92,3.32a11.927,11.927,0,0,0-.4-3.076s-3.26-.857-3.909-2.579c0,0,3.513,2.243,3.817,1.906,0,0-.917-3.156-2.227-4.51a9.959,9.959,0,0,1,2.716,4.342,5.475,5.475,0,0,0,.693-3.064s1.3,1.466-.481,3.833a12.664,12.664,0,0,1,.453,2.88,12,12,0,0,0,2.627-3.961s.4,2.375-2.631,4.662l-.04,2.667s2.9-2.619,3.508-4.253c0,0,0,2.487-3.577,4.922l-.4,2.587a20.327,20.327,0,0,0,3.741-3.737s-.481,2.307-3.889,4.47l-.485,1.694s1.922-1.542,2.435-2.035.689-.4.689-.4a8.384,8.384,0,0,1-3.316,3.148S894.006,811.194,894.206,811.29Z" transform="translate(382.074 -160.137)" fill="#2a9d8f" opacity="0.1"/>
      <path id="Path_455" data-name="Path 455" d="M575.85,55.821s2.287,19.321,15.28,14.659a3.322,3.322,0,0,0,3.136-2.319s-1,.144-1.009-1.842a8.967,8.967,0,0,0-.276-2.095,4.374,4.374,0,0,0-1.5-2.351h0s-3.188-4.974-12.364-5.463c0,0-2.195-1.2-2.675-1.049l1.959,2.976a5.865,5.865,0,0,1,4.217-1s-4.157.857-3.945,1.458c.04.124,1.105,1.53,1.105,1.53s3.745-2.643,6.949-1.742c0,0-5.091.352-6.516,2.263l1.71,2.035s3.789-2.972,7.478-2.087c0,0-5.311.561-7.069,2.5l1.995,1.77S588.07,62.237,591.13,63c0,0-6.072,1.266-6.336,2.439a12.811,12.811,0,0,0,2.615,1.674s2.74-1.967,4.478-1.366c0,0-3.965,1.274-3.9,1.722,0,0,3.016,1.306,4.894,1.161a10.164,10.164,0,0,1-5.075-.681,5.493,5.493,0,0,0,1.918,2.491s-1.954.06-2.647-2.8a12.764,12.764,0,0,1-2.5-1.486,11.987,11.987,0,0,0,1.374,4.55s-2.075-1.2-1.914-5l-2-1.734s.164,3.905,1.029,5.419c0,0-1.922-1.574-1.506-5.9l-1.718-1.975a20.347,20.347,0,0,0,.485,5.263s-1.47-1.842-.957-5.848l-1-1.454s-.036,2.463,0,3.176-.136.781-.136.781a8.411,8.411,0,0,1-.312-4.578S576.05,55.725,575.85,55.821Z" transform="translate(569.57 279.653)" fill="#2a9d8f" opacity="0.1"/>
      <path id="Path_456" data-name="Path 456" d="M788.991,733.858s-18.752-5.207-19.353,8.587a3.323,3.323,0,0,0,.957,3.781s.244-.977,2.087-.236a8.974,8.974,0,0,0,2.043.541,4.377,4.377,0,0,0,2.747-.5h0s5.807-1.065,9.749-9.348c0,0,1.943-1.574,2-2.079l-3.5.685a5.879,5.879,0,0,1-.673,4.285s.8-4.173.148-4.205c-.132,0-1.838.445-1.838.445s1.025,4.43-1.021,7.053c0,0,1.6-4.846.372-6.889l-2.539.837s1.314,4.63-.905,7.706c0,0,1.5-5.123.36-7.486l-2.379,1.157s1.2,4.542-.669,7.089c0,0,1.129-6.1.14-6.789a13.03,13.03,0,0,0-2.535,1.786s.8,3.28-.433,4.662c0,0,.32-4.153-.116-4.266,0,0-2.355,2.295-2.932,4.089a9.959,9.959,0,0,1,2.555-4.438,5.5,5.5,0,0,0-3.032.829s.681-1.83,3.6-1.378a12.554,12.554,0,0,1,2.327-1.754,11.9,11.9,0,0,0-4.734-.457s1.914-1.458,5.355.128l2.371-1.2s-3.677-1.326-5.4-1.1c0,0,2.183-1.2,6.008.837l2.475-.845a20.377,20.377,0,0,0-5.055-1.542s2.263-.661,5.775,1.33l1.722-.372s-2.267-.969-2.944-1.2-.673-.4-.673-.4a8.411,8.411,0,0,1,4.338,1.442S789,734.078,788.991,733.858Z" transform="translate(453.537 -126.526)" fill="#2a9d8f" opacity="0.1"/>
    </g>
  </g>
</svg>
