<svg xmlns="http://www.w3.org/2000/svg" viewBox="0 0 128 128"><defs><style>.a{fill:#ef2d56;}.b{fill:#fff;}</style></defs><circle class="a" cx="64" cy="64" r="64"/><path class="b" d="M68.58,33.18H97.63a70.46,70.46,0,0,0,9.36-.4,54.89,54.89,0,0,0-.4,8.77v8.76a46.91,46.91,0,0,0,.59,9.16H96.65V41.15H68.58V55.63a57.63,57.63,0,0,0,.49,9.16H57.55a55.64,55.64,0,0,0,.59-9.16V41.15H31.25V59.77H20.82a59.45,59.45,0,0,0,.59-9.06V41.55a72,72,0,0,0-.4-8.77,74.43,74.43,0,0,0,9.36.4H58.14V29.43H38.54a100.29,100.29,0,0,0-11.13.4V19.49a92.36,92.36,0,0,0,11.33.59H89.06a97.1,97.1,0,0,0,11.53-.59V29.83a106.11,106.11,0,0,0-11.13-.4H68.58ZM90.24,67.25a86.58,86.58,0,0,0,9.76-.39,83.31,83.31,0,0,0-.4,9.84V99a62.38,62.38,0,0,0,.49,9.55H88.87v-3.84H39v3.84H28.1A61.42,61.42,0,0,0,28.69,99V76.7a88,88,0,0,0-.39-9.84,79.16,79.16,0,0,0,9.26.39Zm-36-15.07a36.54,36.54,0,0,0-5.81-.39H41a34.32,34.32,0,0,0-5.81.39V44.6a43.38,43.38,0,0,0,5.81.3h7.39a45.5,45.5,0,0,0,5.81-.3Zm0,10.74a37,37,0,0,0-5.81-.4H41a35.43,35.43,0,0,0-5.81.4V55.24a45.47,45.47,0,0,0,5.81.29h7.39a47.72,47.72,0,0,0,5.81-.29ZM39.13,81.53h19V75.42h-19Zm0,14.48h19v-6.6h-19ZM68.58,81.53H89V75.42H68.58Zm0,14.48H89v-6.6H68.58Zm24-43.83a35.81,35.81,0,0,0-5.81-.39H78.53a34.17,34.17,0,0,0-5.81.39V44.6a43.28,43.28,0,0,0,5.81.3H86.8a45.5,45.5,0,0,0,5.81-.3Zm0,10.74a37,37,0,0,0-5.81-.4H78.53a35.36,35.36,0,0,0-5.81.4V55.24a45.25,45.25,0,0,0,5.81.29H86.8a47.72,47.72,0,0,0,5.81-.29Z"/></svg>