<svg xmlns="http://www.w3.org/2000/svg" width="425.026" height="313.15" viewBox="0 0 425.026 313.15">
  <g id="Group_44" data-name="Group 44" transform="translate(-895 -384)">
    <g id="Group_42" data-name="Group 42" transform="translate(-37 25)">
      <rect id="Rectangle_1119" data-name="Rectangle 1119" width="178.654" height="5.241" transform="translate(1178.372 474.955)" fill="#e6e6e6"/>
      <rect id="Rectangle_1120" data-name="Rectangle 1120" width="45.259" height="45.259" transform="translate(1193.141 431.125)" fill="#e6e6e6"/>
      <rect id="Rectangle_1121" data-name="Rectangle 1121" width="27.155" height="27.155" transform="translate(1202.193 440.177)" fill="#ccc"/>
      <rect id="Rectangle_1122" data-name="Rectangle 1122" width="11.434" height="45.259" transform="translate(1294.617 431.125)" fill="#e6e6e6"/>
      <rect id="Rectangle_1123" data-name="Rectangle 1123" width="11.434" height="5.241" transform="translate(1294.617 438.271)" fill="#ccc"/>
      <rect id="Rectangle_1124" data-name="Rectangle 1124" width="11.434" height="5.241" transform="translate(1294.617 461.139)" fill="#ccc"/>
      <rect id="Rectangle_1125" data-name="Rectangle 1125" width="11.434" height="45.259" transform="translate(1276.989 431.125)" fill="#e6e6e6"/>
      <rect id="Rectangle_1126" data-name="Rectangle 1126" width="11.434" height="5.241" transform="translate(1276.989 438.271)" fill="#ccc"/>
      <rect id="Rectangle_1127" data-name="Rectangle 1127" width="11.434" height="5.241" transform="translate(1276.989 461.139)" fill="#ccc"/>
      <rect id="Rectangle_1128" data-name="Rectangle 1128" width="11.434" height="45.259" transform="matrix(0.896, -0.444, 0.444, 0.896, 1305.655, 436.011)" fill="#e6e6e6"/>
      <rect id="Rectangle_1129" data-name="Rectangle 1129" width="11.434" height="5.241" transform="matrix(0.896, -0.444, 0.444, 0.896, 1308.826, 442.416)" fill="#ccc"/>
      <rect id="Rectangle_1130" data-name="Rectangle 1130" width="11.434" height="5.241" transform="matrix(0.896, -0.444, 0.444, 0.896, 1318.973, 462.909)" fill="#ccc"/>
      <path id="Path_457" data-name="Path 457" d="M514.474,170.382l5.758,9.973,5.758,9.973H502.958l5.758-9.973Z" transform="translate(695.58 278.91)" fill="#e6e6e6"/>
      <path id="Path_458" data-name="Path 458" d="M533.353,173.978l5.758,9.973,5.758,9.973H521.837l5.758-9.973Z" transform="translate(686.706 277.22)" fill="#e6e6e6"/>
      <circle id="Ellipse_43" data-name="Ellipse 43" cx="3.335" cy="3.335" r="3.335" transform="translate(1220.773 441.606)" fill="#e6e6e6"/>
      <rect id="Rectangle_1131" data-name="Rectangle 1131" width="178.654" height="5.241" transform="translate(1357.026 408.257) rotate(180)" fill="#e6e6e6"/>
      <rect id="Rectangle_1132" data-name="Rectangle 1132" width="45.259" height="45.259" transform="translate(1342.258 404.446) rotate(180)" fill="#e6e6e6"/>
      <rect id="Rectangle_1133" data-name="Rectangle 1133" width="27.155" height="27.155" transform="translate(1333.206 395.394) rotate(180)" fill="#ccc"/>
      <rect id="Rectangle_1134" data-name="Rectangle 1134" width="11.434" height="45.259" transform="translate(1240.782 404.446) rotate(180)" fill="#e6e6e6"/>
      <rect id="Rectangle_1135" data-name="Rectangle 1135" width="11.434" height="5.241" transform="translate(1240.782 371.574) rotate(180)" fill="#ccc"/>
      <rect id="Rectangle_1136" data-name="Rectangle 1136" width="11.434" height="5.241" transform="translate(1240.782 394.441) rotate(180)" fill="#ccc"/>
      <rect id="Rectangle_1137" data-name="Rectangle 1137" width="11.434" height="45.259" transform="translate(1258.409 404.446) rotate(180)" fill="#e6e6e6"/>
      <rect id="Rectangle_1138" data-name="Rectangle 1138" width="11.434" height="5.241" transform="translate(1258.409 371.574) rotate(180)" fill="#ccc"/>
      <rect id="Rectangle_1139" data-name="Rectangle 1139" width="11.434" height="5.241" transform="translate(1258.409 394.441) rotate(180)" fill="#ccc"/>
      <rect id="Rectangle_1140" data-name="Rectangle 1140" width="11.434" height="45.259" transform="matrix(-0.896, -0.444, 0.444, -0.896, 1209.662, 404.633)" fill="#e6e6e6"/>
      <rect id="Rectangle_1141" data-name="Rectangle 1141" width="11.434" height="5.241" transform="matrix(-0.896, -0.444, 0.444, -0.896, 1224.248, 375.174)" fill="#ccc"/>
      <rect id="Rectangle_1142" data-name="Rectangle 1142" width="11.434" height="5.241" transform="matrix(-0.896, -0.444, 0.444, -0.896, 1214.102, 395.667)" fill="#ccc"/>
      <path id="Path_459" data-name="Path 459" d="M732.03,34.634l-5.758,9.973-5.758,9.973h23.032l-5.758-9.973Z" transform="translate(593.315 342.72)" fill="#e6e6e6"/>
      <path id="Path_460" data-name="Path 460" d="M713.151,38.23,707.393,48.2l-5.758,9.973h23.032L718.909,48.2Z" transform="translate(602.189 341.029)" fill="#e6e6e6"/>
      <circle id="Ellipse_44" data-name="Ellipse 44" cx="3.335" cy="3.335" r="3.335" transform="translate(1307.956 369.668)" fill="#e6e6e6"/>
      <rect id="Rectangle_1143" data-name="Rectangle 1143" width="178.654" height="5.241" transform="translate(1357.026 552.134) rotate(180)" fill="#e6e6e6"/>
      <rect id="Rectangle_1144" data-name="Rectangle 1144" width="45.259" height="45.259" transform="translate(1342.258 548.322) rotate(180)" fill="#e6e6e6"/>
      <rect id="Rectangle_1145" data-name="Rectangle 1145" width="27.155" height="27.155" transform="translate(1333.206 539.271) rotate(180)" fill="#ccc"/>
      <rect id="Rectangle_1146" data-name="Rectangle 1146" width="11.434" height="45.259" transform="translate(1240.782 548.322) rotate(180)" fill="#e6e6e6"/>
      <rect id="Rectangle_1147" data-name="Rectangle 1147" width="11.434" height="5.241" transform="translate(1240.782 515.45) rotate(180)" fill="#ccc"/>
      <rect id="Rectangle_1148" data-name="Rectangle 1148" width="11.434" height="5.241" transform="translate(1240.782 538.318) rotate(180)" fill="#ccc"/>
      <rect id="Rectangle_1149" data-name="Rectangle 1149" width="11.434" height="45.259" transform="translate(1258.409 548.322) rotate(180)" fill="#e6e6e6"/>
      <rect id="Rectangle_1150" data-name="Rectangle 1150" width="11.434" height="5.241" transform="translate(1258.409 515.45) rotate(180)" fill="#ccc"/>
      <rect id="Rectangle_1151" data-name="Rectangle 1151" width="11.434" height="5.241" transform="translate(1258.409 538.318) rotate(180)" fill="#ccc"/>
      <rect id="Rectangle_1152" data-name="Rectangle 1152" width="11.434" height="45.259" transform="matrix(-0.896, -0.444, 0.444, -0.896, 1209.662, 548.51)" fill="#e6e6e6"/>
      <rect id="Rectangle_1153" data-name="Rectangle 1153" width="11.434" height="5.241" transform="matrix(-0.896, -0.444, 0.444, -0.896, 1224.248, 519.05)" fill="#ccc"/>
      <rect id="Rectangle_1154" data-name="Rectangle 1154" width="11.434" height="5.241" transform="matrix(-0.896, -0.444, 0.444, -0.896, 1214.102, 539.544)" fill="#ccc"/>
      <path id="Path_461" data-name="Path 461" d="M732.03,306.129l-5.758,9.973-5.758,9.973h23.032l-5.758-9.973Z" transform="translate(593.315 215.101)" fill="#e6e6e6"/>
      <path id="Path_462" data-name="Path 462" d="M713.151,309.725l-5.758,9.973-5.758,9.973h23.032l-5.758-9.973Z" transform="translate(602.189 213.411)" fill="#e6e6e6"/>
      <circle id="Ellipse_45" data-name="Ellipse 45" cx="3.335" cy="3.335" r="3.335" transform="translate(1307.956 513.544)" fill="#e6e6e6"/>
      <ellipse id="Ellipse_46" data-name="Ellipse 46" cx="210.455" cy="14.947" rx="210.455" ry="14.947" transform="translate(932 642.256)" fill="#264653" opacity="0.1"/>
      <path id="Path_463" data-name="Path 463" d="M807.733,692.743c-34.316-6.108-71.843-5.092-111.206,0,17.941-15.146,33.426-30.293,15.484-45.439,35,7.22,39.9,6.489,78.83,0C781.811,662.45,798.7,677.6,807.733,692.743Z" transform="translate(499.141 -27.169)" fill="#ef2d56"/>
      <path id="Path_464" data-name="Path 464" d="M807.733,692.743c-34.316-6.108-71.843-5.092-111.206,0,17.941-15.146,33.426-30.293,15.484-45.439,35,7.22,39.9,6.489,78.83,0C781.811,662.45,798.7,677.6,807.733,692.743Z" transform="translate(499.141 -27.169)" opacity="0.2"/>
      <path id="Path_465" data-name="Path 465" d="M806.787,688.682c-29.15-4.875-61.028-4.065-94.466,0,15.241-12.09,28.394-24.18,13.153-36.27,29.729,5.763,33.893,5.18,66.963,0C784.767,664.5,799.117,676.592,806.787,688.682Z" transform="translate(491.716 -29.57)" fill="#ef2d56"/>
      <circle id="Ellipse_47" data-name="Ellipse 47" cx="15.532" cy="15.532" r="15.532" transform="translate(1271.867 608.567)" fill="#264653"/>
      <path id="Path_466" data-name="Path 466" d="M522.212,466.249l10.762,1.794,5.381,15.545-15.545,9.566-17.937-26.905h17.339Z" transform="translate(694.68 139.835)" fill="#f0b67f"/>
      <circle id="Ellipse_48" data-name="Ellipse 48" cx="25.111" cy="25.111" r="25.111" transform="translate(1222.272 579.777)" fill="#f0b67f"/>
      <path id="Path_467" data-name="Path 467" d="M450.872,445.919s-60.984,6.577-71.746,5.381a133.254,133.254,0,0,1-15.545-2.392s-7.175,9.566-3.587,13.751a25.872,25.872,0,0,0,7.175,5.979s6.577-1.794,11.36,0,53.212,9.566,61.582,2.392S450.872,445.919,450.872,445.919Z" transform="translate(657.803 67.493)" fill="#264653"/>
      <path id="Path_468" data-name="Path 468" d="M460.721,598.928s-40.058-11.36-47.233-61.582v-4.783s-7.926,13.9-10.762,16.741c-3.288,3.288-14.947,32.884-14.349,35.873s0,4.185,0,4.185l-17.339-1.794v-5.381s9.267-27.8,9.865-34.378,23.019-52.315,23.019-52.315,8.37-17.339,22.72,0,15.545,29.3,15.545,29.3l18.534,35.873Z" transform="translate(652.139 47.813)" fill="#264653"/>
      <path id="Path_469" data-name="Path 469" d="M341.309,437.156l-19.132-6.577s-17.937-13.153-13.751,0,23.317,41.852,28.7,38.862,11.852-10.41,10.41-11.483S336.526,449.114,341.309,437.156Z" transform="translate(681.868 77.452)" fill="#264653"/>
      <path id="Path_470" data-name="Path 470" d="M351.573,659.259,336.129,666.8s-18.677,2.873-8.261,8.261,39.15,11.134,40.587,6.106.867-13.374-.644-13.152S355.883,669.316,351.573,659.259Z" transform="translate(673.917 -32.789)" fill="#264653"/>
      <path id="Path_471" data-name="Path 471" d="M523.58,608.729s-7.773,33.481,5.381,40.656,105.228,8.37,112.4-4.783,3.587-13.153,3.587-13.153l-19.132-21.524,15.545-1.2a5.581,5.581,0,0,0-5.381-5.381c-5.381-.6-22.122-6.577-36.471-2.391s-22.72-8.37-22.72-8.37Z" transform="translate(581.507 -1.449)" fill="#2a9d8f"/>
      <path id="Path_472" data-name="Path 472" d="M298.421,268.417l-10.164,55.6,69.953-8.37,12.555-50.223Z" transform="translate(796.502 234.233)" fill="#264653"/>
      <path id="Path_473" data-name="Path 473" d="M303.961,272.366l-8.37,49.624,63.675-7.473,12.256-45.14Z" transform="translate(793.055 232.377)" fill="#fff"/>
      <path id="Path_474" data-name="Path 474" d="M289.588,376.591l-2.392-.6-1.2,2.391L305.133,431.6l1.8-.688.592-3.5Z" transform="translate(797.563 182.261)" fill="#b3b3b3"/>
      <path id="Path_475" data-name="Path 475" d="M288.257,367.97l19.132,55.6,72.344-10.762L358.21,360.2Z" transform="translate(796.502 189.685)" fill="#d3d3d3"/>
      <path id="Path_476" data-name="Path 476" d="M306.309,366.177v2.989l53.211-5.979-.6-2.989Z" transform="translate(788.017 189.685)" fill="#264653"/>
      <path id="Path_477" data-name="Path 477" d="M308.565,377.989l8.37,23.317,54.407-6.577-9.566-22.122Z" transform="translate(786.956 183.852)" fill="#264653"/>
      <path id="Path_478" data-name="Path 478" d="M614.745,577.581l-1.794-4.783s-13.751-23.915-20.926-19.132,14.947,28.1,14.947,28.1h7.175Z" transform="translate(548.935 17.143)" fill="#f0b67f"/>
      <path id="Path_479" data-name="Path 479" d="M547.626,581.158l-1.794-7.175s-4.783-22.122,3.587-20.926,10.762,22.122,10.762,22.122l-.6,4.783Z" transform="translate(570.615 17.154)" fill="#f0b67f"/>
      <path id="Path_480" data-name="Path 480" d="M562.611,599.791s-15.545-2.392-16.143,1.2-3.587,57.4,11.36,59.19,89.085,9.566,81.312-8.968-19.73-16.143-19.73-16.143l-50.82,5.381Z" transform="translate(569.979 -4.468)" fill="#2a9d8f"/>
      <path id="Path_481" data-name="Path 481" d="M443.744,449.1,427.9,438.044l-10.463,8.072,13.154,14.349Z" transform="translate(735.779 153.093)" fill="#2a9d8f"/>
      <path id="Path_482" data-name="Path 482" d="M386.976,479.224l2.391,22.72,41.254-2.392-35.873-.6Z" transform="translate(750.099 133.736)" opacity="0.2"/>
      <circle id="Ellipse_49" data-name="Ellipse 49" cx="29.894" cy="29.894" r="29.894" transform="translate(1229.885 579.557)" fill="#264653"/>
      <path id="Path_483" data-name="Path 483" d="M328.309,294.478l37.069-1.29,3.587-13.657L330.7,280.686Z" transform="translate(777.675 227.604)" fill="#ef2d56"/>
      <path id="Path_484" data-name="Path 484" d="M310.258,318.69l56.2-1.794.6-2.392-56.2,1.979Z" transform="translate(786.16 211.164)" fill="#e6e6e6"/>
      <path id="Path_485" data-name="Path 485" d="M308,329.972l56.2-1.794.6-2.392-56.2,1.979Z" transform="translate(787.221 205.861)" fill="#e6e6e6"/>
      <path id="Path_486" data-name="Path 486" d="M306.873,339l56.2-1.793.6-2.392-56.2,1.978Z" transform="translate(787.752 201.618)" fill="#e6e6e6"/>
    </g>
  </g>
</svg>
